<?xml version="1.0" encoding="utf-8"?>
<!-- Generator: Adobe Illustrator 21.0.1, SVG Export Plug-In . SVG Version: 6.00 Build 0)  -->
<svg version="1.1" id="Layer_1" xmlns="http://www.w3.org/2000/svg" xmlns:xlink="http://www.w3.org/1999/xlink" x="0px" y="0px"
	 viewBox="0 0 100 100" style="enable-background:new 0 0 100 100;" xml:space="preserve">
<style type="text/css">
	.st0{fill:url(#SVGID_1_);stroke:#000000;stroke-miterlimit:10;}
</style>
<linearGradient id="SVGID_1_" gradientUnits="userSpaceOnUse" x1="2.9423" y1="49.2267" x2="97.9851" y2="49.2267">
	<stop  offset="0" style="stop-color:#FFFFFF"/>
	<stop  offset="1" style="stop-color:#000000"/>
</linearGradient>
<path class="st0" d="M97.9,38.4c-0.2-0.8-0.9-1.3-1.7-1.4l-30.3-4.4L52.3,5.1c-0.3-0.7-1.1-1.2-1.9-1.2S49,4.4,48.6,5.1L35,32.6
	L4.7,37c-0.8,0.1-1.4,0.7-1.7,1.4s0,1.6,0.5,2.1l21.9,21.4l-5.2,30.2c-0.1,0.8,0.2,1.6,0.8,2c0.4,0.3,0.8,0.4,1.2,0.4
	c0.3,0,0.7-0.1,1-0.2L50.5,80l27.1,14.3c0.7,0.4,1.5,0.3,2.2-0.2c0.6-0.5,1-1.2,0.8-2l-5.2-30.2l21.9-21.4
	C97.9,40,98.1,39.1,97.9,38.4z M71.7,59.7c-0.5,0.5-0.7,1.2-0.6,1.8l4.7,27.1L51.4,75.9c-0.3-0.2-0.6-0.2-1-0.2s-0.7,0.1-1,0.2
	L25.1,88.7l4.7-27.1c0.1-0.7-0.1-1.4-0.6-1.8L9.5,40.5l27.3-4c0.7-0.1,1.3-0.5,1.6-1.1l12.2-24.7l12.2,24.7c0.3,0.6,0.9,1,1.6,1.1
	l27.3,4L71.7,59.7z"/>
</svg>
