<?xml version="1.0" encoding="utf-8"?>
<!-- Generator: Adobe Illustrator 21.0.1, SVG Export Plug-In . SVG Version: 6.00 Build 0)  -->
<svg version="1.1" id="Layer_1" xmlns="http://www.w3.org/2000/svg" xmlns:xlink="http://www.w3.org/1999/xlink" x="0px" y="0px"
	 viewBox="0 0 543.7 389.9" style="enable-background:new 0 0 543.7 389.9;" xml:space="preserve">
<style type="text/css">
	.st0{fill:#231F20;}
	.st1{fill:#2E2A25;stroke:#232222;}
	.st2{fill:url(#SVGID_1_);}
	.st3{fill:url(#SVGID_2_);}
	.st4{fill:url(#SVGID_3_);}
	.st5{fill:url(#SVGID_4_);}
	.st6{fill:url(#SVGID_5_);}
	.st7{fill:url(#SVGID_6_);}
	.st8{fill:url(#SVGID_7_);}
	.st9{fill:url(#SVGID_8_);}
	.st10{fill:url(#SVGID_9_);}
	.st11{fill:url(#SVGID_10_);}
	.st12{fill:#FFFFFF;stroke:#FFFFFF;stroke-miterlimit:10;}
	.st13{fill:#2E2A25;stroke:#FFFFFF;stroke-miterlimit:10;}
	.st14{fill:url(#SVGID_11_);stroke:#FFFFFF;stroke-miterlimit:10;}
	.st15{fill:url(#SVGID_12_);stroke:#FFFFFF;stroke-miterlimit:10;}
</style>
<g id="Guides">
</g>
<g id="Logos_7">
	<g>
		<path class="st0" d="M205.7,1261.3L205.7,1261.3c0.4-0.1,1.5-0.1,1.8-0.1l0,0l0,0l-0.2,0.2c-0.1,0.4-0.1,1.6-0.1,2.8
			c0,1.3,0,2.4,0,2.7c0.5,0.1,1.1,0.1,1.6,0.1c0.7,0,1,0,1.4-0.1l0,0v0.1c-0.2,0.1-0.5,0.3-0.7,0.4c-0.3,0.1-0.9,0.1-1.5,0.1
			c-0.4,0-1.4,0-1.9,0v-0.1c0-0.1,0.1-0.2,0.1-0.2c0-0.3,0.1-1.1,0.1-3c0-1.8,0-2.4-0.2-2.6C206.2,1261.5,206,1261.4,205.7,1261.3
			L205.7,1261.3z"/>
		<path class="st0" d="M212.2,1266.2c-0.2,0-0.3,0.1-0.3,0.2l-0.5,1.1l-0.1,0.1h-0.6v-0.1c0.2-0.2,0.8-1,1.4-2.1
			c0.6-1.1,0.8-1.6,0.8-1.8c0-0.1,0.1-0.3,0.1-0.4c0.1-0.1,0.3-0.2,0.4-0.3h0.1c0,0.3,0.3,1,1,2.3c1,2,1,2.1,1.4,2.2v0.1
			c-0.1,0-0.3,0-0.5,0c-0.3,0-0.6,0-0.8,0v-0.1v-0.1c-0.2-0.4-0.4-0.9-0.6-1.2c0-0.1-0.1-0.1-0.2-0.1L212.2,1266.2z M212.2,1265.7
			C212.2,1265.8,212.2,1265.8,212.2,1265.7c0.2,0.1,0.4,0.1,0.7,0.1s0.5,0,0.8,0l0,0l-0.8-1.7L212.2,1265.7z"/>
		<path class="st0" d="M216.1,1263.2l1.4-0.1v0.1l-0.1,0.1c-0.1,0.4-0.1,1.1-0.1,1.9c0.2,0,0.5-0.2,0.7-0.3c0.3-0.3,0.9-1.2,1.2-1.6
			v-0.2c0.4,0,1.1,0.1,1.2,0.1v0.1c-0.3,0-0.5,0.1-0.9,0.4c-0.2,0.2-0.9,0.9-1.2,1.2l0,0c2.1,2.4,2.2,2.5,2.5,2.6v0.1
			c-0.2,0-0.9-0.1-1.2-0.2c-0.5-0.4-1.4-1.4-2-2.1h-0.3c0,0.5,0,1.3,0,2l0,0h-0.2l-0.6,0.2h-0.1c0.1-0.2,0.1-1.1,0.1-2.3
			c0-1.3,0-1.7-0.2-1.8c0-0.1-0.2-0.1-0.4-0.2L216.1,1263.2L216.1,1263.2z"/>
		<path class="st0" d="M221.4,1263.1c0.5,0,1,0.1,1.4,0.1h0.8c0.4,0,0.7,0,0.9-0.1l0,0v0.9l0,0l-0.1,0.1l0,0l-0.4-0.5
			c0,0-0.1-0.1-0.2-0.1l-1.4,0.1v1.5l0,0c0.2,0,0.6,0,0.8,0c0.5,0,0.7,0,1,0l0,0c0,0,0,0,0,0.1c-0.1,0.1-0.3,0.2-0.4,0.3
			c-0.5,0.1-1.2,0.1-1.5,0.1v1.5c0.3,0.1,0.9,0.1,1.4,0.1s0.7,0,1-0.1l0,0v0.1c-0.1,0.1-0.3,0.2-0.5,0.3c-0.3,0.1-0.7,0.1-1.2,0.1
			c-0.3,0-0.7,0-1.2,0l-0.3,0.1h-0.1c0-0.5,0.1-1.2,0.1-2.4c0-1.2,0-1.5-0.1-1.6s-0.2-0.1-0.5-0.2v-0.1L221.4,1263.1z"/>
		<path class="st0" d="M233.1,1262.3c-0.1-0.4-0.8-0.8-1.7-0.8c-1,0-1.5,0.3-1.8,0.6c-0.3,0.3-0.8,0.9-0.8,2c0,1.6,0.8,3.1,2.8,3.1
			c1.1,0,1.6-0.3,2.1-0.7h0.1l-0.1,0.3l-0.7,0.7c-0.4,0.2-1,0.4-1.9,0.4c-2.1,0-3.3-1.5-3.3-3.3c0-1.3,0.6-2.1,1.4-2.8
			c0.5-0.3,1.2-0.7,2.5-0.7c1.1,0,1.8,0.3,1.9,0.5v0.1l-0.3,0.5L233.1,1262.3L233.1,1262.3z"/>
		<path class="st0" d="M235.4,1266.2c-0.2,0-0.3,0.1-0.3,0.2l-0.5,1.1l-0.1,0.1h-0.6v-0.1c0.2-0.2,0.8-1,1.4-2.1
			c0.6-1.1,0.8-1.6,0.8-1.8c0-0.1,0.1-0.3,0.1-0.4c0.1-0.1,0.3-0.2,0.4-0.3h0.1c0,0.3,0.3,1,1,2.3c1,2,1,2.1,1.4,2.2v0.1
			c-0.1,0-0.3,0-0.5,0c-0.3,0-0.6,0-0.8,0v-0.1v-0.1c-0.2-0.4-0.4-0.9-0.6-1.2c0-0.1-0.1-0.1-0.2-0.1L235.4,1266.2z M235.5,1265.7
			C235.5,1265.8,235.5,1265.8,235.5,1265.7c0.2,0.1,0.4,0.1,0.7,0.1s0.5,0,0.8,0l0,0l-0.8-1.7L235.5,1265.7z"/>
		<path class="st0" d="M241,1267.7c-0.1-0.3-0.3-0.8-1-2.4s-0.8-1.8-1-1.9c-0.1,0-0.2-0.1-0.4-0.1v-0.1l0.1-0.1
			c0.3,0,1.1-0.1,1.4-0.1v0.1l-0.1,0.1l1.4,3.2l0,0l0.8-1.8c0.3-0.6,0.5-1.2,0.6-1.6c0,0,0,0,0.1,0h0.7v0.1
			c-0.2,0.2-0.7,0.9-1.2,1.9c-0.7,1.5-0.9,2-1,2.3C241.4,1267.5,241.2,1267.6,241,1267.7L241,1267.7z"/>
		<path class="st0" d="M244.8,1266.2c-0.2,0-0.3,0.1-0.3,0.2l-0.5,1.1l-0.1,0.1h-0.6v-0.1c0.2-0.2,0.8-1,1.4-2.1
			c0.6-1.1,0.8-1.6,0.8-1.8c0-0.1,0.1-0.3,0.1-0.4c0.1-0.1,0.3-0.2,0.4-0.3h0.1c0,0.3,0.3,1,1,2.3c1,2,1,2.1,1.4,2.2v0.1
			c-0.1,0-0.3,0-0.5,0c-0.3,0-0.6,0-0.8,0v-0.1v-0.1c-0.2-0.4-0.4-0.9-0.6-1.2c0-0.1-0.1-0.1-0.2-0.1L244.8,1266.2z M244.8,1265.7
			C244.8,1265.8,244.8,1265.8,244.8,1265.7c0.2,0.1,0.4,0.1,0.7,0.1s0.5,0,0.8,0l0,0l-0.8-1.7L244.8,1265.7z"/>
		<path class="st0" d="M248.6,1263.1h0.8l0.2-0.1h0.1c0.1,0.1,1,1.1,1.5,1.7c0.9,0.9,1.4,1.5,1.6,1.7c0-0.4,0-1.3,0-1.7
			c0-0.8-0.1-1.2-0.1-1.5v-0.1c0.2,0,0.5-0.1,0.7-0.2c0,0,0,0,0,0.1l-0.1,0.2c-0.1,0.3-0.2,1.8-0.2,2.4c0,0.9,0,1.6,0,2l-0.1,0.1
			l-0.3-0.1c-0.6-0.6-2.8-2.9-3.4-3.5l0,0c0,0.8,0,2.5,0.1,3.4l0,0h-0.3l-0.4,0.1v-0.1c0.1-0.4,0.2-1.7,0.2-2.7c0-0.9,0-1.2-0.1-1.4
			c-0.1-0.1-0.2-0.2-0.5-0.2l0,0L248.6,1263.1z"/>
		<path class="st0" d="M255.5,1266.2c-0.2,0-0.3,0.1-0.3,0.2l-0.5,1.1l-0.1,0.1H254v-0.1c0.2-0.2,0.8-1,1.4-2.1
			c0.6-1.1,0.8-1.6,0.8-1.8c0-0.1,0.1-0.3,0.1-0.4c0.1-0.1,0.3-0.2,0.4-0.3h0.1c0,0.3,0.3,1,1,2.3c1,2,1,2.1,1.4,2.2v0.1
			c-0.1,0-0.3,0-0.5,0c-0.3,0-0.6,0-0.8,0v-0.1v-0.1c-0.2-0.4-0.4-0.9-0.6-1.2c0-0.1-0.1-0.1-0.2-0.1L255.5,1266.2z M255.6,1265.7
			C255.6,1265.8,255.6,1265.8,255.6,1265.7c0.2,0.1,0.4,0.1,0.7,0.1c0.3,0,0.5,0,0.8,0l0,0l-0.8-1.7L255.6,1265.7z"/>
		<path class="st0" d="M259.5,1263.1h1.4v0.1l-0.1,0.1c0,0.2-0.1,0.8-0.1,1.4c0,1.6,0.1,1.9,0.5,2.2c0.3,0.2,0.6,0.3,1,0.3
			c0.5,0,0.9-0.2,1.1-0.5s0.3-0.6,0.3-1.5c0-1-0.1-1.6-0.1-2v-0.1c0.1,0,0.5-0.1,0.6-0.2l0,0c-0.1,0.4-0.1,1.6-0.1,2.1
			c0,0.7,0,1.2-0.3,1.7s-0.8,0.8-1.6,0.8c-0.8,0-1.3-0.1-1.7-0.5c-0.3-0.3-0.4-0.7-0.4-1.7c0-1.8,0-2-0.1-2.1
			C259.9,1263.2,259.7,1263.1,259.5,1263.1L259.5,1263.1L259.5,1263.1z"/>
		<path class="st0" d="M269.3,1264c-0.2-0.4-0.7-0.7-1.4-0.7c-0.7,0-1,0.2-1.2,0.4c-0.3,0.3-0.5,0.7-0.5,1.3c0,1.4,0.9,2.2,2,2.2
			c0.4,0,0.8-0.1,0.9-0.1c0-0.2,0-1,0-1.3l-0.3-0.1v-0.1l0.1-0.1c0.3,0,0.9-0.1,1.2-0.1v0.1l-0.1,0.1c0,0.4-0.1,1,0,1.3h0.1v0.1
			c-0.5,0.2-1.2,0.5-2.3,0.5c-1.5,0-2.3-1-2.3-2.3c0-0.8,0.4-1.4,1.1-1.9c0.4-0.3,1.1-0.5,1.8-0.5c0.9,0,1.4,0.2,1.6,0.3v0.1
			l-0.2,0.4v0.2L269.3,1264z"/>
		<path class="st0" d="M272.1,1263.1L272.1,1263.1v0.2c-0.1,0.3-0.1,1.4-0.1,1.6l0.1,0.1c0.2,0,0.8,0.1,1.4,0.1c0.3,0,1.1,0,1.2-0.1
			l0,0c0-0.2,0-1.4-0.1-1.6l0,0c0.2-0.1,0.7-0.2,0.9-0.2v0.1c-0.1,0.2-0.1,1-0.1,2.1c0,0.4,0,1.1,0,1.5l0.2,0.1l0,0
			c-0.1,0.1-0.1,0.1-0.1,0.3c0,0.1,0,0.2-0.1,0.3l-0.7,0.3l-0.1-0.1c0-0.3,0-0.8,0-1.3v-0.9c0-0.1,0-0.1-0.1-0.1l-2.6,0.2l-0.1,0.1
			c0,0.3,0,1.2,0,1.8l0,0h-0.2l-0.6,0.2h-0.1c0-0.3,0.1-1.1,0.1-2.3c0-1.3,0-1.7-0.1-1.8c-0.1-0.1-0.2-0.1-0.4-0.2l0,0v-0.1
			L272.1,1263.1z"/>
		<path class="st0" d="M232.5,1271.6c-0.1,0.1-0.2,0.4-0.6,0.4c-0.5,0-0.9-0.4-0.9-1s0.4-1,0.9-1c0.2,0,0.4,0.1,0.4,0.1
			s0.1,0,0.1-0.1h0.1c0,0.2,0.1,0.3,0.1,0.4h-0.1c0-0.1-0.2-0.3-0.5-0.3c-0.4,0-0.7,0.3-0.7,0.8c0,0.6,0.3,0.9,0.7,0.9
			C232.1,1271.9,232.3,1271.7,232.5,1271.6L232.5,1271.6z"/>
		<path class="st0" d="M233.1,1271c0-0.5,0.4-1,0.9-1s0.9,0.4,0.9,1s-0.4,1-0.9,1C233.6,1272,233.1,1271.7,233.1,1271z
			 M234.1,1271.9c0.4,0,0.7-0.3,0.7-0.9c0-0.5-0.3-0.9-0.7-0.9s-0.7,0.3-0.7,0.9C233.3,1271.6,233.7,1271.9,234.1,1271.9z"/>
		<path class="st0" d="M235.9,1271c0-0.4,0-0.3,0-0.5c0-0.3-0.1-0.2-0.2-0.3l0,0c0.1,0,0.1,0,0.2,0c0.1,0,0.1,0,0.2,0l0.6,1.5
			l0.6-1.5c0.1,0,0.1,0,0.2,0c0.1,0,0.1,0,0.2,0l0,0c-0.1,0-0.2,0-0.2,0.2v0.1l0.1,1c0,0.4,0,0.5,0.2,0.5l0,0c-0.1,0-0.2,0-0.3,0
			s-0.2,0-0.3,0l0,0c0.1,0,0.2,0,0.2-0.2c0-0.1,0-0.1,0-0.2l-0.1-1.3l0,0l-0.3,0.7c-0.1,0.3-0.3,0.8-0.4,1l0,0
			c-0.1-0.4-0.3-0.7-0.4-1.1l-0.3-0.6l0,0l-0.1,1.2c0,0,0,0.1,0,0.2c0,0.2,0.1,0.2,0.2,0.3l0,0c-0.1,0-0.1,0-0.2,0
			c-0.1,0-0.1,0-0.2,0L235.9,1271z"/>
		<path class="st0" d="M238.7,1271c0-0.4,0-0.3,0-0.5c0-0.3-0.1-0.2-0.2-0.3l0,0c0.1,0,0.1,0,0.2,0c0.1,0,0.1,0,0.2,0l0.6,1.5
			l0.6-1.5c0.1,0,0.1,0,0.2,0c0.1,0,0.1,0,0.2,0l0,0c-0.1,0-0.2,0-0.2,0.2v0.1l0.1,1c0,0.4,0,0.5,0.2,0.5l0,0c-0.1,0-0.2,0-0.3,0
			s-0.2,0-0.3,0l0,0c0.1,0,0.2,0,0.2-0.2c0-0.1,0-0.1,0-0.2l-0.1-1.3l0,0l-0.3,0.7c-0.1,0.3-0.3,0.8-0.4,1l0,0
			c-0.1-0.4-0.3-0.7-0.4-1.1l-0.3-0.6l0,0l-0.1,1.2c0,0,0,0.1,0,0.2c0,0.2,0.1,0.2,0.2,0.3l0,0c-0.1,0-0.1,0-0.2,0
			c-0.1,0-0.1,0-0.2,0L238.7,1271z"/>
		<path class="st0" d="M242.8,1271.4c0,0.6-0.5,0.7-0.7,0.7c-0.7,0-0.7-0.5-0.7-0.7v-1c0-0.1,0-0.2-0.2-0.3l0,0c0.1,0,0.2,0,0.3,0
			s0.2,0,0.3,0l0,0c-0.1,0-0.2,0.1-0.2,0.3v1c0,0.1,0,0.5,0.5,0.5C242.5,1271.9,242.7,1271.6,242.8,1271.4l-0.1-1
			c0-0.2,0-0.3-0.2-0.3l0,0c0.1,0,0.2,0,0.2,0c0.1,0,0.1,0,0.2,0l0,0c-0.1,0-0.2,0.1-0.2,0.3L242.8,1271.4L242.8,1271.4z"/>
		<path class="st0" d="M244.2,1272c-0.1,0-0.1,0-0.2,0c-0.1,0-0.1,0-0.2,0c0-0.2,0-0.4,0-0.7v-0.7c0-0.4,0-0.4-0.2-0.5l0,0
			c0.1,0,0.1,0,0.2,0c0.1,0,0.1,0,0.2,0l1.1,1.5l0,0v-0.9c0-0.4,0-0.5-0.2-0.5l0,0c0.1,0,0.1,0,0.2,0c0.1,0,0.1,0,0.2,0
			c0,0.1,0,0.2,0,0.7v0.4c0,0.5,0,0.7,0,0.8h-0.1c-0.1-0.2-0.2-0.3-0.4-0.5l-0.4-0.6c-0.1-0.2-0.3-0.4-0.5-0.6l0,0v0.6
			c0,0.2,0,0.4,0,0.5C243.9,1271.9,244,1271.9,244.2,1272L244.2,1272z"/>
		<path class="st0" d="M246.1,1271.9c0.1,0,0.2,0,0.2-0.3v-1.3c0-0.2-0.1-0.3-0.2-0.3l0,0c0.1,0,0.2,0,0.3,0s0.2,0,0.3,0l0,0
			c-0.1,0-0.2,0-0.2,0.3v1.3c0,0.2,0.1,0.3,0.2,0.3l0,0c-0.1,0-0.2,0-0.3,0C246.3,1272,246.2,1272,246.1,1271.9L246.1,1271.9z"/>
		<path class="st0" d="M247.7,1271.9c0.1,0,0.2,0,0.2-0.3v-1.4h-0.2c-0.3,0-0.4,0.1-0.4,0.2h-0.1c0-0.2,0.1-0.2,0.1-0.4h0.1
			c0,0,0,0,0.1,0h0.1h1c0.1,0,0.1,0,0.2,0h0.1c0,0.2,0,0.2,0.1,0.4h-0.1c0-0.1-0.1-0.2-0.4-0.2h-0.2v1.4c0,0.2,0,0.2,0.2,0.3l0,0
			c-0.1,0-0.2,0-0.3,0C247.9,1272,247.8,1272,247.7,1271.9L247.7,1271.9z"/>
		<path class="st0" d="M249.9,1271.9c0.1,0,0.2-0.1,0.2-0.3v-0.6l-0.4-0.5c-0.3-0.4-0.3-0.4-0.4-0.5l0,0c0.1,0,0.2,0,0.3,0
			s0.2,0,0.3,0l0,0c-0.1,0-0.2,0-0.2,0.1s0.1,0.2,0.2,0.4l0.3,0.4l0.2-0.2c0.2-0.3,0.3-0.5,0.3-0.5c0-0.1-0.1-0.1-0.1-0.1l0,0
			c0.1,0,0.1,0,0.2,0c0.1,0,0.1,0,0.2,0c0,0.2-0.2,0.4-0.4,0.7c-0.1,0.1-0.2,0.2-0.2,0.3v0.6c0,0.2,0,0.3,0.2,0.3l0,0
			c-0.1,0-0.2,0-0.3,0C250,1272,250,1272,249.9,1271.9L249.9,1271.9z"/>
	</g>
	<polygon class="st1" points="241.1,1216.9 251.9,1237.5 262.7,1258.1 241.1,1258.1 219.4,1258.1 230.2,1237.5 	"/>
	
		<linearGradient id="SVGID_1_" gradientUnits="userSpaceOnUse" x1="202.8" y1="-850.6" x2="246.1291" y2="-850.6" gradientTransform="matrix(1 0 0 -1 0 392)">
		<stop  offset="0" style="stop-color:#FFFFFF"/>
		<stop  offset="2.049065e-02" style="stop-color:#F4F4F4"/>
		<stop  offset="0.1353" style="stop-color:#BCBCBC"/>
		<stop  offset="0.2536" style="stop-color:#8A8A8A"/>
		<stop  offset="0.3728" style="stop-color:#5F5F5F"/>
		<stop  offset="0.493" style="stop-color:#3D3D3D"/>
		<stop  offset="0.6147" style="stop-color:#222222"/>
		<stop  offset="0.7382" style="stop-color:#0F0F0F"/>
		<stop  offset="0.865" style="stop-color:#040404"/>
		<stop  offset="1" style="stop-color:#000000"/>
	</linearGradient>
	<polygon class="st2" points="224.5,1226.2 235.3,1242.6 246.2,1259 224.5,1259 202.8,1259 213.7,1242.6 	"/>
	
		<linearGradient id="SVGID_2_" gradientUnits="userSpaceOnUse" x1="234.5" y1="-851.5" x2="277.8" y2="-851.5" gradientTransform="matrix(1 0 0 -1 0 392)">
		<stop  offset="0" style="stop-color:#FFFFFF"/>
		<stop  offset="2.049065e-02" style="stop-color:#F4F4F4"/>
		<stop  offset="0.1353" style="stop-color:#BCBCBC"/>
		<stop  offset="0.2536" style="stop-color:#8A8A8A"/>
		<stop  offset="0.3728" style="stop-color:#5F5F5F"/>
		<stop  offset="0.493" style="stop-color:#3D3D3D"/>
		<stop  offset="0.6147" style="stop-color:#222222"/>
		<stop  offset="0.7382" style="stop-color:#0F0F0F"/>
		<stop  offset="0.865" style="stop-color:#040404"/>
		<stop  offset="1" style="stop-color:#000000"/>
	</linearGradient>
	<polygon class="st3" points="256.2,1227.1 267,1243.5 277.8,1259.9 256.2,1259.9 234.5,1259.9 245.3,1243.5 	"/>
</g>
<g id="Logos_6">
	<g>
		<path class="st0" d="M186.8,1149.1l0.1-0.1c0.6,0,2.4,0,2.9-0.1v0.1v0.1l-0.3,0.3c-0.1,0.7-0.1,2.7-0.1,4.7c0,2.1,0,4,0.1,4.6
			c0.8,0.2,1.8,0.2,2.7,0.2c1.1,0,1.7,0,2.3-0.2v0.1v0.2c-0.3,0.2-0.8,0.5-1.1,0.7c-0.5,0.1-1.5,0.2-2.5,0.2c-0.7,0-2.4,0-3.1-0.1
			v-0.1c0.1-0.1,0.1-0.3,0.2-0.4c0.1-0.5,0.1-1.8,0.1-5c0-2.9,0-4-0.3-4.3C187.7,1149.4,187.3,1149.3,186.8,1149.1L186.8,1149.1z"/>
		<path class="st0" d="M197.6,1157.4c-0.3,0-0.4,0.1-0.6,0.4l-0.8,1.8c0,0-0.1,0.1-0.2,0.1l-1-0.1c0,0,0-0.1,0-0.2
			c0.4-0.4,1.3-1.6,2.3-3.6c1-1.9,1.3-2.7,1.4-2.9c0.1-0.2,0.1-0.5,0.2-0.6c0.2-0.2,0.5-0.4,0.7-0.5h0.1c0.1,0.5,0.6,1.6,1.7,3.9
			c1.6,3.3,1.7,3.5,2.4,3.6c0,0,0,0.1,0,0.2c-0.2,0-0.5,0-0.8,0c-0.5,0-1,0-1.4,0v-0.1v-0.1c-0.3-0.7-0.6-1.4-1-2.1
			c-0.1-0.1-0.1-0.1-0.3-0.1L197.6,1157.4z M197.6,1156.5C197.6,1156.5,197.7,1156.5,197.6,1156.5c0.3,0.1,0.7,0.2,1.2,0.2
			s0.9,0,1.4,0l0,0l-1.3-2.8L197.6,1156.5z"/>
		<path class="st0" d="M204.1,1152.2l2.4-0.1v0.1l-0.1,0.2c-0.1,0.7-0.1,1.9-0.1,3.1c0.4-0.1,0.8-0.3,1.1-0.5
			c0.5-0.6,1.4-1.9,1.9-2.7v-0.3c0.7,0,1.8,0.1,2,0.1v0.2c-0.6,0-0.8,0.1-1.4,0.7c-0.4,0.3-1.6,1.6-2,2v0.1c3.4,4,3.7,4.2,4.2,4.4
			c0,0.1,0,0.2-0.1,0.2c-0.4,0-1.5-0.2-1.9-0.4c-0.8-0.6-2.3-2.3-3.4-3.5h-0.5c0,0.8,0,2.2,0.1,3.4l-0.1,0.1h-0.4l-1,0.3l-0.1-0.1
			c0.1-0.4,0.1-1.9,0.1-3.9c0-2.2,0-2.8-0.3-3.1c-0.1-0.1-0.3-0.2-0.6-0.3v-0.1L204.1,1152.2z"/>
		<path class="st0" d="M212.9,1152.1c0.8,0.1,1.7,0.1,2.3,0.1h1.4c0.6,0,1.2-0.1,1.4-0.1h0.1v1.4l0,0l-0.1,0.1l0,0l-0.7-0.8
			c-0.1-0.1-0.1-0.1-0.3-0.1l-2.4,0.1v2.5v0.1c0.3,0,0.9,0,1.4,0c0.8,0,1.2,0,1.7-0.1v0.1v0.1c-0.2,0.1-0.4,0.3-0.6,0.4
			c-0.8,0.1-2,0.2-2.5,0.2v2.5c0.6,0.1,1.4,0.2,2.4,0.2c0.8,0,1.1,0,1.6-0.2l0,0v0.1c-0.2,0.2-0.6,0.4-0.8,0.6
			c-0.5,0.1-1.2,0.2-2,0.2c-0.5,0-1.1,0-2,0l-0.5,0.1l-0.1-0.1c0.1-0.8,0.1-1.9,0.1-4c0-2-0.1-2.6-0.2-2.7c-0.1-0.1-0.4-0.2-0.9-0.3
			v-0.1L212.9,1152.1z"/>
		<path class="st0" d="M232.4,1150.8c-0.2-0.6-1.3-1.4-2.9-1.4c-1.7,0-2.5,0.5-3,0.9c-0.6,0.5-1.3,1.5-1.3,3.4
			c0,2.6,1.4,5.1,4.7,5.1c1.8,0,2.6-0.5,3.4-1.2h0.1l-0.1,0.4l-1.1,1.1c-0.6,0.4-1.6,0.7-3.2,0.7c-3.5,0-5.5-2.6-5.5-5.5
			c0-2.2,0.9-3.5,2.3-4.6c0.9-0.6,2-1.1,4.1-1.1c1.9,0,3,0.5,3.2,0.8v0.1l-0.5,0.9L232.4,1150.8L232.4,1150.8z"/>
		<path class="st0" d="M236.3,1157.4c-0.3,0-0.4,0.1-0.6,0.4l-0.8,1.8c0,0-0.1,0.1-0.2,0.1l-1-0.1c0,0,0-0.1,0-0.2
			c0.4-0.4,1.3-1.6,2.3-3.6c1-1.9,1.3-2.7,1.4-2.9c0.1-0.2,0.1-0.5,0.2-0.6c0.2-0.2,0.5-0.4,0.7-0.5h0.1c0.1,0.5,0.6,1.6,1.7,3.9
			c1.6,3.3,1.7,3.5,2.4,3.6c0,0,0,0.1,0,0.2c-0.2,0-0.5,0-0.8,0c-0.5,0-1,0-1.4,0v-0.1v-0.1c-0.3-0.7-0.6-1.4-1-2.1
			c-0.1-0.1-0.1-0.1-0.3-0.1L236.3,1157.4z M236.4,1156.5L236.4,1156.5c0.3,0.1,0.7,0.2,1.2,0.2s0.9,0,1.4,0l0,0l-1.3-2.8
			L236.4,1156.5z"/>
		<path class="st0" d="M245.6,1159.7c-0.1-0.5-0.5-1.4-1.7-4c-1.2-2.7-1.3-3-1.6-3.1c-0.2-0.1-0.4-0.1-0.6-0.2v-0.1l0.1-0.1
			c0.5,0,1.8-0.1,2.4-0.1v0.1l-0.1,0.1l2.3,5.4l0,0l1.4-3c0.5-1.1,0.9-2.1,1-2.6l0.1-0.1l1.1,0.1v0.1c-0.4,0.3-1.1,1.4-1.9,3.2
			c-1.2,2.5-1.6,3.3-1.7,3.9c-0.2,0.1-0.5,0.4-0.6,0.5L245.6,1159.7z"/>
		<path class="st0" d="M251.9,1157.4c-0.3,0-0.4,0.1-0.6,0.4l-0.8,1.8c0,0-0.1,0.1-0.2,0.1l-1-0.1c0,0,0-0.1,0-0.2
			c0.4-0.4,1.3-1.6,2.3-3.6c1-1.9,1.3-2.7,1.4-2.9c0.1-0.2,0.1-0.5,0.2-0.6c0.2-0.2,0.5-0.4,0.7-0.5h0.1c0.1,0.5,0.6,1.6,1.7,3.9
			c1.6,3.3,1.7,3.5,2.4,3.6c0,0,0,0.1,0,0.2c-0.2,0-0.5,0-0.8,0c-0.5,0-1,0-1.4,0v-0.1v-0.1c-0.3-0.7-0.6-1.4-1-2.1
			c-0.1-0.1-0.1-0.1-0.3-0.1L251.9,1157.4z M251.9,1156.5C251.9,1156.5,252,1156.5,251.9,1156.5c0.3,0.1,0.7,0.2,1.2,0.2
			s0.9,0,1.4,0l0,0l-1.3-2.8L251.9,1156.5z"/>
		<path class="st0" d="M258.3,1152.1l1.3-0.1l0.4-0.1h0.2c0.2,0.2,1.7,1.9,2.6,2.8c1.4,1.6,2.4,2.5,2.7,2.9c0-0.6,0-2.1,0-2.8
			c0-1.3-0.1-2-0.2-2.5v-0.1c0.3-0.1,0.8-0.2,1.2-0.3v0.1l-0.2,0.3c-0.1,0.5-0.3,3-0.3,4c0,1.5,0,2.7,0.1,3.4l-0.1,0.1l-0.5-0.1
			c-1-0.9-4.7-4.9-5.6-5.9l0,0c0,1.4,0,4.2,0.1,5.7v0.1h-0.4l-0.6,0.2l-0.1-0.1c0.2-0.7,0.3-2.8,0.4-4.5c0-1.5,0-2.1-0.1-2.3
			c-0.2-0.2-0.4-0.3-0.9-0.4v-0.1V1152.1z"/>
		<path class="st0" d="M269.8,1157.4c-0.3,0-0.4,0.1-0.6,0.4l-0.8,1.8c0,0-0.1,0.1-0.2,0.1l-1-0.1c0,0,0-0.1,0-0.2
			c0.4-0.4,1.3-1.6,2.3-3.6c1-1.9,1.3-2.7,1.4-2.9c0.1-0.2,0.1-0.5,0.2-0.6c0.2-0.2,0.5-0.4,0.7-0.5h0.1c0.1,0.5,0.6,1.6,1.7,3.9
			c1.6,3.3,1.7,3.5,2.4,3.6c0,0,0,0.1,0,0.2c-0.2,0-0.5,0-0.8,0c-0.5,0-1,0-1.4,0v-0.1v-0.1c-0.3-0.7-0.6-1.4-1-2.1
			c-0.1-0.1-0.1-0.1-0.3-0.1L269.8,1157.4z M269.9,1156.5L269.9,1156.5c0.3,0.1,0.7,0.2,1.2,0.2s0.9,0,1.4,0l0,0l-1.3-2.8
			L269.9,1156.5z"/>
		<path class="st0" d="M276.4,1152.1l2.4-0.1v0.1l-0.2,0.2c-0.1,0.3-0.1,1.3-0.1,2.3c0,2.6,0.2,3.1,0.8,3.7c0.4,0.4,1,0.5,1.7,0.5
			c0.9,0,1.5-0.3,1.8-0.8s0.4-0.9,0.4-2.4c0-1.7-0.1-2.7-0.2-3.3v-0.1c0.2,0,0.8-0.2,1-0.3l0.1,0.1c-0.2,0.7-0.2,2.7-0.2,3.5
			c0,1.1,0,2-0.5,2.8s-1.4,1.3-2.7,1.3c-1.4,0-2.2-0.2-2.9-0.9c-0.5-0.5-0.7-1.2-0.7-2.8c0-3-0.1-3.3-0.2-3.4s-0.3-0.2-0.6-0.2v-0.1
			L276.4,1152.1z"/>
		<path class="st0" d="M292.7,1153.7c-0.3-0.7-1.1-1.1-2.4-1.1c-1.2,0-1.7,0.4-2.1,0.6c-0.6,0.5-0.9,1.1-0.9,2.2
			c0,2.3,1.5,3.7,3.4,3.7c0.6,0,1.3-0.1,1.5-0.2c0-0.4,0-1.6,0-2.2l-0.6-0.1v-0.1l0.1-0.1c0.4-0.1,1.5-0.2,1.9-0.2v0.2l-0.2,0.2
			c-0.1,0.7-0.1,1.7-0.1,2.2l0.2,0.1c0,0.1,0,0.2,0,0.2c-0.8,0.4-2,0.9-3.8,0.9c-2.4,0-3.9-1.7-3.9-3.9c0-1.3,0.6-2.4,1.8-3.1
			c0.7-0.5,1.8-0.8,3-0.8c1.4,0,2.4,0.4,2.6,0.5v0.2l-0.3,0.7l-0.1,0.4L292.7,1153.7z"/>
		<path class="st0" d="M297.4,1152.1L297.4,1152.1l-0.1,0.3c-0.1,0.6-0.1,2.3-0.1,2.7c0,0.1,0.1,0.1,0.2,0.2
			c0.3,0.1,1.3,0.1,2.3,0.1c0.6,0,1.9-0.1,2.1-0.1l0.1-0.1c0-0.3,0-2.3-0.1-2.7v-0.1c0.3-0.1,1.1-0.3,1.5-0.4l0.1,0.1
			c-0.1,0.3-0.1,1.6-0.1,3.4c0,0.7,0,1.9,0.1,2.5l0.3,0.2l0,0c-0.1,0.1-0.2,0.2-0.2,0.5c0,0.2-0.1,0.4-0.1,0.5l-1.2,0.5l-0.2-0.1
			c0-0.6,0-1.3,0-2.1v-1.5c0-0.1-0.1-0.1-0.2-0.1l-4.3,0.3l-0.1,0.1c0,0.5,0,1.9,0.1,3.1v0.1h-0.4l-1,0.3l-0.1-0.1
			c0-0.4,0.1-1.9,0.1-3.9c0-2.2,0-2.9-0.2-3.1c-0.1-0.1-0.3-0.2-0.7-0.3v-0.1l0.1-0.1L297.4,1152.1z"/>
		<path class="st0" d="M231.4,1166.3c-0.1,0.2-0.4,0.7-1.1,0.7c-0.8,0-1.5-0.6-1.5-1.6s0.7-1.6,1.5-1.6c0.4,0,0.6,0.1,0.7,0.1
			c0.1,0,0.1,0,0.1-0.1h0.1c0,0.3,0.1,0.5,0.1,0.7h-0.1c-0.1-0.2-0.3-0.5-0.8-0.5c-0.6,0-1.2,0.5-1.2,1.4c0,1,0.5,1.5,1.1,1.5
			c0.5,0,0.8-0.3,0.9-0.5L231.4,1166.3z"/>
		<path class="st0" d="M232.5,1165.3c0-0.9,0.7-1.6,1.6-1.6c0.9,0,1.6,0.7,1.6,1.6s-0.7,1.7-1.6,1.7
			C233.3,1167,232.5,1166.4,232.5,1165.3z M234,1166.8c0.6,0,1.2-0.5,1.2-1.4s-0.5-1.4-1.2-1.4c-0.6,0-1.2,0.6-1.2,1.4
			C232.8,1166.3,233.4,1166.8,234,1166.8z"/>
		<path class="st0" d="M237,1165.2c0-0.6,0-0.5,0-0.9c0-0.5-0.2-0.4-0.3-0.5v-0.1c0.1,0,0.2,0,0.4,0c0.1,0,0.2,0,0.3,0l1,2.6l1-2.6
			c0.1,0,0.2,0,0.4,0c0.1,0,0.2,0,0.3,0v0.1c-0.1,0-0.3,0.1-0.3,0.3c0,0.1,0,0.1,0,0.2l0.1,1.6c0,0.7,0,0.8,0.3,0.9v0.1
			c-0.1,0-0.3,0-0.4,0c-0.2,0-0.3,0-0.5,0v-0.1c0.2,0,0.3,0,0.3-0.4c0-0.1,0-0.2,0-0.3l-0.2-2.2l0,0l-0.5,1.2
			c-0.2,0.5-0.5,1.3-0.6,1.7h-0.1c-0.2-0.6-0.5-1.2-0.7-1.8l-0.4-1l0,0l-0.1,2c0,0.1,0,0.2,0,0.3c0,0.4,0.2,0.4,0.4,0.4v0.1
			c-0.1,0-0.2,0-0.4,0c-0.1,0-0.2,0-0.3,0L237,1165.2z"/>
		<path class="st0" d="M241.7,1165.2c0-0.6,0-0.5,0-0.9c0-0.5-0.2-0.4-0.3-0.5v-0.1c0.1,0,0.2,0,0.4,0c0.1,0,0.2,0,0.3,0l1,2.6
			l1-2.6c0.1,0,0.2,0,0.4,0c0.1,0,0.2,0,0.3,0v0.1c-0.1,0-0.3,0.1-0.3,0.3c0,0.1,0,0.1,0,0.2l0.1,1.6c0.1,0.7,0,0.8,0.3,0.9v0.1
			c-0.1,0-0.3,0-0.4,0c-0.2,0-0.3,0-0.5,0v-0.1c0.2,0,0.3,0,0.3-0.4c0-0.1,0-0.2,0-0.3l-0.2-2.2l0,0l-0.5,1.2
			c-0.2,0.5-0.5,1.3-0.6,1.7h-0.1c-0.2-0.6-0.5-1.2-0.7-1.8l-0.4-1l0,0l-0.1,2c0,0.1,0,0.2,0,0.3c0,0.4,0.2,0.4,0.4,0.4v0.1
			c-0.1,0-0.2,0-0.4,0c-0.1,0-0.2,0-0.3,0L241.7,1165.2z"/>
		<path class="st0" d="M248.7,1165.9c0,1-0.8,1.1-1.2,1.1c-1.1,0-1.2-0.8-1.2-1.1v-1.6c0-0.2,0-0.4-0.3-0.5v-0.1c0.1,0,0.3,0,0.4,0
			c0.1,0,0.3,0,0.4,0v0.1c-0.2,0-0.3,0.1-0.3,0.5v1.6c0,0.2,0,0.9,0.9,0.9c0.7,0,0.9-0.5,0.9-0.9v-1.6c0-0.3-0.1-0.5-0.3-0.5v-0.1
			c0.1,0,0.3,0,0.4,0c0.1,0,0.2,0,0.4,0v0.1c-0.2,0-0.3,0.2-0.3,0.5v1.6H248.7z"/>
		<path class="st0" d="M250.9,1166.9c-0.1,0-0.2,0-0.3,0s-0.2,0-0.3,0c0-0.3,0-0.6,0-1.1v-1.2c0-0.6,0-0.7-0.3-0.8v-0.1
			c0.1,0,0.2,0,0.3,0s0.2,0,0.3,0l1.8,2.4l0,0v-1.5c0-0.7,0-0.8-0.4-0.9v-0.1c0.1,0,0.2,0,0.3,0s0.2,0,0.3,0c0,0.1,0,0.4,0,1.1v0.6
			c0,0.8,0,1.2,0,1.4h-0.1c-0.2-0.3-0.4-0.6-0.6-0.9l-0.7-0.9c-0.2-0.3-0.5-0.7-0.8-1l0,0v1.1c0,0.3,0,0.6,0,0.9
			C250.5,1166.8,250.6,1166.8,250.9,1166.9L250.9,1166.9z"/>
		<path class="st0" d="M254.1,1166.8c0.1,0,0.3,0,0.3-0.5v-2.1c0-0.4-0.1-0.4-0.3-0.5v-0.1c0.1,0,0.3,0,0.4,0c0.1,0,0.3,0,0.4,0v0.1
			c-0.1,0-0.3,0-0.3,0.5v2.1c0,0.4,0.1,0.4,0.3,0.5v0.1c-0.1,0-0.3,0-0.4,0C254.4,1166.9,254.2,1166.9,254.1,1166.8L254.1,1166.8z"
			/>
		<path class="st0" d="M256.8,1166.8c0.2,0,0.3-0.1,0.3-0.5v-2.4h-0.3c-0.5,0-0.6,0.2-0.7,0.4H256c0.1-0.3,0.1-0.3,0.1-0.6h0.1
			l0.1,0.1c0.1,0,0.1,0,0.2,0h1.6c0.2,0,0.2,0,0.3-0.1h0.1c0,0.3,0,0.4,0.1,0.6h-0.1c-0.1-0.2-0.2-0.4-0.7-0.4h-0.3v2.4
			c0,0.4,0.1,0.4,0.3,0.5v0.1c-0.1,0-0.3,0-0.4,0C257.1,1166.9,257,1166.9,256.8,1166.8L256.8,1166.8z"/>
		<path class="st0" d="M260.4,1166.8c0.2,0,0.3-0.2,0.3-0.5v-0.9l-0.6-0.8c-0.5-0.7-0.5-0.7-0.7-0.8v-0.1c0.2,0,0.4,0,0.5,0
			c0.2,0,0.3,0,0.5,0v0.1c-0.1,0-0.3,0-0.3,0.2c0,0.1,0.2,0.4,0.3,0.6l0.5,0.6l0.3-0.3c0.4-0.4,0.6-0.8,0.6-0.9
			c0-0.2-0.1-0.2-0.2-0.2v-0.1c0.1,0,0.2,0,0.3,0c0.1,0,0.2,0,0.3,0c0,0.4-0.3,0.7-0.7,1.2c-0.1,0.2-0.3,0.4-0.4,0.5v0.9
			c0,0.3,0,0.4,0.3,0.5v0.1c-0.1,0-0.3,0-0.4,0C260.7,1166.9,260.5,1166.9,260.4,1166.8L260.4,1166.8z"/>
	</g>
	<polygon class="st1" points="245.7,1075 263.7,1109.4 281.8,1143.8 245.7,1143.8 209.6,1143.8 227.6,1109.4 	"/>
	
		<linearGradient id="SVGID_3_" gradientUnits="userSpaceOnUse" x1="182" y1="-725.95" x2="254.2" y2="-725.95" gradientTransform="matrix(1 0 0 -1 0 392)">
		<stop  offset="0" style="stop-color:#FFFFFF"/>
		<stop  offset="2.049065e-02" style="stop-color:#F4F4F4"/>
		<stop  offset="0.1353" style="stop-color:#BCBCBC"/>
		<stop  offset="0.2536" style="stop-color:#8A8A8A"/>
		<stop  offset="0.3728" style="stop-color:#5F5F5F"/>
		<stop  offset="0.493" style="stop-color:#3D3D3D"/>
		<stop  offset="0.6147" style="stop-color:#222222"/>
		<stop  offset="0.7382" style="stop-color:#0F0F0F"/>
		<stop  offset="0.865" style="stop-color:#040404"/>
		<stop  offset="1" style="stop-color:#000000"/>
	</linearGradient>
	<polygon class="st4" points="218.1,1090.6 236.2,1117.9 254.2,1145.3 218.1,1145.3 182,1145.3 200,1117.9 	"/>
	
		<linearGradient id="SVGID_4_" gradientUnits="userSpaceOnUse" x1="234.8" y1="-727.45" x2="307" y2="-727.45" gradientTransform="matrix(1 0 0 -1 0 392)">
		<stop  offset="0" style="stop-color:#FFFFFF"/>
		<stop  offset="2.049065e-02" style="stop-color:#F4F4F4"/>
		<stop  offset="0.1353" style="stop-color:#BCBCBC"/>
		<stop  offset="0.2536" style="stop-color:#8A8A8A"/>
		<stop  offset="0.3728" style="stop-color:#5F5F5F"/>
		<stop  offset="0.493" style="stop-color:#3D3D3D"/>
		<stop  offset="0.6147" style="stop-color:#222222"/>
		<stop  offset="0.7382" style="stop-color:#0F0F0F"/>
		<stop  offset="0.865" style="stop-color:#040404"/>
		<stop  offset="1" style="stop-color:#000000"/>
	</linearGradient>
	<polygon class="st5" points="270.9,1092.1 288.9,1119.4 307,1146.8 270.9,1146.8 234.8,1146.8 252.8,1119.4 	"/>
</g>
<g id="Logos_5">
	<g>
		<path class="st0" d="M163.9,1009.5l0.2-0.2c0.8,0,3.3,0,4.1-0.1v0.1v0.1l-0.4,0.4c-0.1,0.9-0.2,3.8-0.2,6.6c0,3,0,5.6,0.1,6.4
			c1.2,0.2,2.5,0.3,3.8,0.3c1.5,0,2.3-0.1,3.2-0.3v0.1l-0.1,0.2c-0.4,0.3-1.1,0.7-1.5,0.9c-0.8,0.2-2.1,0.2-3.6,0.2
			c-1,0-3.3,0-4.3-0.1v-0.2c0.1-0.1,0.2-0.4,0.2-0.5c0.1-0.7,0.2-2.5,0.2-7.1c0-4.1-0.1-5.6-0.4-6.1c-0.2-0.3-0.7-0.4-1.4-0.6
			L163.9,1009.5z"/>
		<path class="st0" d="M179,1021c-0.4,0-0.6,0.2-0.8,0.5l-1.1,2.5c0,0.1-0.2,0.1-0.3,0.1l-1.4-0.1c0-0.1,0-0.2,0-0.2
			c0.5-0.5,1.8-2.3,3.2-5s1.8-3.8,1.9-4.1c0.1-0.3,0.2-0.7,0.2-0.8c0.2-0.2,0.7-0.6,1-0.7h0.2c0.1,0.7,0.8,2.2,2.4,5.4
			c2.3,4.7,2.4,4.9,3.3,5.1c0,0.1,0,0.2,0,0.3c-0.2,0-0.6,0-1.2,0c-0.6,0-1.4,0-1.9-0.1v-0.1l0.1-0.2c-0.4-1-0.9-2-1.4-2.9
			c-0.1-0.2-0.2-0.2-0.4-0.2L179,1021z M179.1,1019.8c0,0.1,0,0.1,0.1,0.1c0.4,0.1,0.8,0.1,1.6,0.1c0.7,0,1.3,0,1.9-0.1l0,0
			l-1.9-3.9L179.1,1019.8z"/>
		<path class="st0" d="M188.1,1013.8l3.3-0.2v0.1l-0.2,0.3c-0.1,1-0.2,2.6-0.2,4.4c0.5-0.1,1.2-0.4,1.5-0.7c0.6-0.8,2-2.7,2.7-3.8
			v-0.4c1,0,2.5,0.1,2.8,0.2v0.3c-0.8,0.1-1.1,0.2-2,0.9c-0.5,0.4-2.2,2.2-2.8,2.9v0.1c4.8,5.6,5.2,5.9,5.9,6.1c0,0.1,0,0.2-0.1,0.3
			c-0.5,0-2.1-0.3-2.7-0.5c-1.1-0.8-3.2-3.2-4.7-4.9H191c0,1.1,0,3.1,0.1,4.7l-0.1,0.1l-0.6,0.1l-1.3,0.4l-0.2-0.1
			c0.2-0.6,0.2-2.6,0.2-5.5c0-3.1-0.1-4-0.4-4.3c-0.1-0.2-0.4-0.3-0.9-0.4v-0.1L188.1,1013.8z"/>
		<path class="st0" d="M200.4,1013.6c1.1,0.1,2.4,0.1,3.2,0.1h2c0.9,0,1.7-0.1,2-0.2l0.1,0.1v2l0,0l-0.2,0.1h-0.1l-0.9-1.2
			c-0.1-0.1-0.2-0.2-0.4-0.2l-3.4,0.2v3.4l0.1,0.1c0.4,0,1.3,0,1.9,0c1.1,0,1.7,0,2.4-0.1v0.1c0,0,0,0.1,0,0.2
			c-0.2,0.2-0.6,0.4-0.9,0.6c-1.2,0.1-2.8,0.3-3.5,0.3v3.5c0.8,0.2,2,0.2,3.3,0.2c1.1,0,1.5,0,2.3-0.2l0,0v0.2
			c-0.3,0.3-0.8,0.6-1.2,0.8c-0.7,0.2-1.6,0.3-2.9,0.3c-0.7,0-1.6,0-2.8-0.1l-0.7,0.2l-0.1-0.1c0.1-1.1,0.2-2.7,0.2-5.5
			c0-2.7-0.1-3.6-0.3-3.8s-0.6-0.3-1.3-0.4v-0.2L200.4,1013.6z"/>
		<path class="st0" d="M227.7,1011.7c-0.2-0.9-1.8-1.9-4.1-1.9c-2.4,0-3.5,0.7-4.2,1.3c-0.8,0.7-1.8,2.2-1.8,4.7
			c0,3.6,1.9,7.2,6.6,7.2c2.5,0,3.7-0.8,4.8-1.7h0.2l-0.1,0.6l-1.6,1.6c-0.8,0.5-2.3,1-4.4,1c-4.9,0-7.7-3.6-7.7-7.6
			c0-3.1,1.3-5,3.3-6.4c1.2-0.8,2.9-1.6,5.7-1.6c2.7,0,4.2,0.8,4.4,1.1v0.1l-0.7,1.2l-0.1,0.4H227.7z"/>
		<path class="st0" d="M233.2,1021c-0.4,0-0.6,0.2-0.8,0.5l-1.1,2.5c0,0.1-0.2,0.1-0.3,0.1l-1.4-0.1c0-0.1,0-0.2,0-0.2
			c0.5-0.5,1.8-2.3,3.2-5s1.8-3.8,1.9-4.1c0.1-0.3,0.2-0.7,0.2-0.8c0.2-0.2,0.7-0.6,1-0.7h0.2c0.1,0.7,0.8,2.2,2.4,5.4
			c2.3,4.7,2.4,4.9,3.3,5.1c0,0.1,0,0.2,0,0.3c-0.2,0-0.6,0-1.2,0c-0.6,0-1.4,0-1.9-0.1v-0.1l0.1-0.2c-0.4-1-0.9-2-1.4-2.9
			c-0.1-0.2-0.2-0.2-0.4-0.2L233.2,1021z M233.3,1019.8c0,0.1,0,0.1,0.1,0.1c0.4,0.1,0.8,0.1,1.6,0.1c0.7,0,1.3,0,1.9-0.1l0,0
			l-1.9-3.9L233.3,1019.8z"/>
		<path class="st0" d="M246.3,1024.3c-0.2-0.7-0.7-1.9-2.3-5.7c-1.7-3.8-1.9-4.2-2.3-4.4c-0.2-0.1-0.6-0.2-0.9-0.2v-0.2l0.1-0.2
			c0.7,0,2.6-0.1,3.3-0.1v0.2l-0.2,0.2l3.2,7.5l0,0l2-4.2c0.7-1.5,1.3-2.9,1.4-3.7c0,0,0.1-0.1,0.2-0.1l1.6,0.1c0,0,0,0.1,0,0.2
			c-0.5,0.5-1.5,2-2.7,4.4c-1.7,3.5-2.2,4.6-2.3,5.5c-0.2,0.1-0.8,0.5-0.9,0.6L246.3,1024.3z"/>
		<path class="st0" d="M255,1021c-0.4,0-0.6,0.2-0.8,0.5l-1.1,2.5c0,0.1-0.2,0.1-0.3,0.1l-1.4-0.1c0-0.1,0-0.2,0-0.2
			c0.5-0.5,1.8-2.3,3.2-5s1.8-3.8,1.9-4.1s0.2-0.7,0.2-0.8c0.2-0.2,0.7-0.6,1-0.7h0.2c0.1,0.7,0.8,2.2,2.4,5.4
			c2.3,4.7,2.4,4.9,3.3,5.1c0,0.1,0,0.2,0,0.3c-0.2,0-0.6,0-1.2,0s-1.4,0-1.9-0.1v-0.1l0.1-0.2c-0.4-1-0.9-2-1.4-2.9
			c-0.1-0.2-0.2-0.2-0.4-0.2L255,1021z M255.1,1019.8c0,0.1,0,0.1,0.1,0.1c0.4,0.1,0.8,0.1,1.6,0.1c0.7,0,1.3,0,1.9-0.1l0,0
			l-1.9-3.9L255.1,1019.8z"/>
		<path class="st0" d="M263.9,1013.7l1.8-0.1l0.6-0.1h0.2c0.3,0.3,2.4,2.6,3.6,3.9c2,2.2,3.3,3.5,3.8,4c0-0.8,0-2.9,0-4
			c0-1.8-0.1-2.8-0.2-3.4l0.1-0.2c0.4-0.1,1.2-0.3,1.6-0.4l0.1,0.1l-0.3,0.4c-0.2,0.7-0.4,4.2-0.4,5.6c0,2.1,0,3.7,0.1,4.7l-0.1,0.1
			l-0.7-0.2c-1.4-1.3-6.6-6.9-7.8-8.3h-0.1c0,1.9,0,5.9,0.2,7.9l-0.1,0.1h-0.6l-0.8,0.2l-0.1-0.2c0.2-0.9,0.4-3.9,0.5-6.3
			c0.1-2.1,0-2.9-0.2-3.3C264.9,1013.9,264.6,1013.8,263.9,1013.7L263.9,1013.7L263.9,1013.7z"/>
		<path class="st0" d="M280.2,1021c-0.4,0-0.6,0.2-0.8,0.5l-1.1,2.5c0,0.1-0.2,0.1-0.3,0.1l-1.4-0.1c0-0.1,0-0.2,0-0.2
			c0.5-0.5,1.8-2.3,3.2-5c1.4-2.7,1.8-3.8,1.9-4.1s0.2-0.7,0.2-0.8c0.2-0.2,0.7-0.6,1-0.7h0.2c0.1,0.7,0.8,2.2,2.4,5.4
			c2.3,4.7,2.4,4.9,3.3,5.1c0,0.1,0,0.2,0,0.3c-0.2,0-0.6,0-1.2,0s-1.4,0-1.9-0.1v-0.1l0.1-0.2c-0.4-1-0.9-2-1.4-2.9
			c-0.1-0.2-0.2-0.2-0.4-0.2L280.2,1021z M280.2,1019.8c0,0.1,0,0.1,0.1,0.1c0.4,0.1,0.8,0.1,1.6,0.1c0.7,0,1.3,0,1.9-0.1l0,0
			l-1.9-3.9L280.2,1019.8z"/>
		<path class="st0" d="M289.3,1013.7l3.3-0.1v0.2l-0.2,0.2c-0.1,0.4-0.2,1.8-0.2,3.2c0,3.6,0.2,4.4,1.1,5.2c0.6,0.6,1.4,0.8,2.4,0.8
			c1.2,0,2.1-0.4,2.5-1.1c0.4-0.6,0.6-1.3,0.6-3.4c0-2.4-0.2-3.8-0.3-4.7l0.1-0.1c0.3,0,1.1-0.2,1.4-0.4l0.1,0.1
			c-0.2,1-0.3,3.8-0.3,4.9c0,1.5,0,2.9-0.8,4c-0.7,1.1-1.9,1.8-3.8,1.8s-3.1-0.3-4-1.3c-0.7-0.7-1-1.7-1-3.9c0-4.1-0.1-4.6-0.3-4.8
			c-0.1-0.1-0.4-0.2-0.8-0.3v-0.2L289.3,1013.7z"/>
		<path class="st0" d="M312.2,1015.8c-0.4-1-1.6-1.6-3.4-1.6c-1.7,0-2.4,0.5-2.9,0.9c-0.8,0.7-1.2,1.6-1.2,3c0,3.2,2.1,5.2,4.7,5.2
			c0.8,0,1.8-0.2,2.1-0.3c0-0.5,0-2.3,0-3.1l-0.8-0.2v-0.2l0.1-0.2c0.6-0.1,2.2-0.3,2.7-0.3v0.2l-0.2,0.3c-0.1,0.9-0.2,2.4-0.1,3.1
			l0.3,0.1c0,0.1,0,0.2,0,0.3c-1.2,0.5-2.8,1.3-5.3,1.3c-3.4,0-5.5-2.3-5.5-5.5c0-1.9,0.9-3.3,2.5-4.4c1-0.7,2.5-1.1,4.2-1.1
			c2,0,3.3,0.5,3.7,0.7v0.2l-0.5,0.9l-0.1,0.5L312.2,1015.8z"/>
		<path class="st0" d="M318.7,1013.6l0.1,0.1l-0.2,0.3c-0.2,0.8-0.2,3.3-0.2,3.8c0,0.1,0.1,0.2,0.3,0.2c0.4,0.1,1.9,0.2,3.2,0.2
			c0.8,0,2.6-0.1,2.9-0.2l0.1-0.1c0-0.4,0-3.2-0.1-3.8l0.1-0.1c0.4-0.1,1.6-0.4,2.1-0.5l0.1,0.1c-0.1,0.5-0.2,2.3-0.2,4.8
			c0,0.9,0,2.6,0.1,3.5l0.4,0.2l0,0c-0.2,0.2-0.2,0.3-0.3,0.7c-0.1,0.2-0.1,0.5-0.2,0.7l-1.7,0.7l-0.2-0.1c0-0.8,0.1-1.9,0.1-3v-2.1
			c0-0.2-0.1-0.2-0.3-0.2l-6,0.4l-0.1,0.2c0,0.8,0,2.7,0.1,4.3l-0.1,0.1h-0.6l-1.4,0.4l-0.1-0.1c0-0.6,0.2-2.6,0.2-5.5
			c0-3.1-0.1-4-0.3-4.3c-0.1-0.2-0.4-0.3-0.9-0.4v-0.1l0.1-0.2H318.7z"/>
		<path class="st0" d="M226.3,1033.5c-0.2,0.2-0.6,0.9-1.5,0.9c-1.1,0-2-0.9-2-2.3c0-1.3,0.9-2.3,2-2.3c0.5,0,0.8,0.2,0.9,0.2
			c0.1,0,0.1,0,0.2-0.1h0.1c0,0.4,0.1,0.7,0.2,1H226c-0.1-0.3-0.4-0.7-1.2-0.8c-0.9,0-1.6,0.7-1.6,2c0,1.4,0.7,2,1.6,2
			c0.7,0,1.1-0.5,1.3-0.7L226.3,1033.5z"/>
		<path class="st0" d="M227.8,1032.1c0-1.2,0.9-2.3,2.2-2.3c1.2,0,2.2,0.9,2.2,2.3c0,1.3-1,2.3-2.2,2.3
			C228.9,1034.5,227.8,1033.7,227.8,1032.1z M230,1034.2c0.9,0,1.7-0.7,1.7-2c0-1.2-0.8-2-1.7-2s-1.7,0.8-1.7,2
			C228.3,1033.5,229.2,1034.2,230,1034.2z"/>
		<path class="st0" d="M234.2,1032c0-0.9,0-0.6,0-1.3c0-0.6-0.2-0.6-0.4-0.6v-0.1c0.2,0,0.3,0,0.5,0c0.1,0,0.3,0,0.4,0l1.4,3.6
			l1.4-3.6c0.2,0,0.3,0,0.5,0c0.1,0,0.3,0,0.4,0v0.1c-0.2,0-0.4,0.1-0.4,0.5c0,0.1,0,0.2,0,0.2l0.2,2.2c0.1,1,0,1.1,0.4,1.2v0.1
			c-0.2,0-0.4,0-0.6,0c-0.2,0-0.5,0-0.7,0v-0.1c0.3-0.1,0.5-0.1,0.5-0.5c0-0.1,0-0.2,0-0.4l-0.2-3.1l0,0l-0.7,1.7
			c-0.3,0.8-0.7,1.8-0.9,2.3h-0.1c-0.3-0.8-0.7-1.7-1-2.5l-0.6-1.5l0,0l-0.1,2.8c0,0.1,0,0.3,0,0.4c0,0.5,0.3,0.6,0.5,0.6v0.1
			c-0.2,0-0.3,0-0.5,0c-0.1,0-0.2,0-0.4,0L234.2,1032z"/>
		<path class="st0" d="M240.7,1032c0-0.9,0-0.6,0-1.3c0-0.6-0.2-0.6-0.4-0.6v-0.1c0.2,0,0.3,0,0.5,0c0.1,0,0.3,0,0.4,0l1.4,3.6
			l1.4-3.6c0.2,0,0.3,0,0.5,0c0.1,0,0.3,0,0.4,0v0.1c-0.2,0-0.4,0.1-0.4,0.5c0,0.1,0,0.2,0,0.2l0.2,2.2c0.1,1,0,1.1,0.4,1.2v0.1
			c-0.2,0-0.4,0-0.6,0c-0.2,0-0.5,0-0.7,0v-0.1c0.3-0.1,0.5-0.1,0.5-0.5c0-0.1,0-0.2,0-0.4l-0.2-3.1l0,0l-0.7,1.7
			c-0.3,0.8-0.7,1.8-0.9,2.3h-0.1c-0.3-0.8-0.7-1.7-1-2.5l-0.6-1.5l0,0l-0.1,2.8c0,0.1,0,0.3,0,0.4c0,0.5,0.3,0.6,0.5,0.6v0.1
			c-0.2,0-0.3,0-0.5,0c-0.1,0-0.2,0-0.4,0L240.7,1032z"/>
		<path class="st0" d="M250.5,1032.9c0,1.4-1.1,1.5-1.7,1.5c-1.5,0-1.6-1.1-1.6-1.5v-2.2c0-0.3,0-0.6-0.4-0.6v-0.1
			c0.2,0,0.4,0,0.6,0c0.2,0,0.4,0,0.6,0v0.1c-0.3,0-0.4,0.2-0.4,0.6v2.3c0,0.3,0,1.2,1.3,1.2c1,0,1.3-0.6,1.3-1.2v-2.3
			c0-0.4-0.1-0.6-0.4-0.6v-0.1c0.2,0,0.4,0,0.5,0c0.2,0,0.3,0,0.5,0v0.1c-0.3,0-0.4,0.3-0.4,0.6L250.5,1032.9L250.5,1032.9z"/>
		<path class="st0" d="M253.6,1034.4c-0.1,0-0.3,0-0.4,0c-0.1,0-0.3,0-0.5,0c0-0.4,0.1-0.8,0.1-1.5v-1.7c0-0.9,0-0.9-0.4-1.1v-0.1
			c0.1,0,0.3,0,0.4,0c0.2,0,0.3,0,0.5,0l2.5,3.4l0,0v-2.1c0-1,0-1.2-0.5-1.3v-0.1c0.2,0,0.3,0,0.5,0c0.1,0,0.3,0,0.4,0
			c0,0.1,0,0.6,0,1.6v0.9c0,1.1,0,1.7,0,1.9H256c-0.3-0.4-0.6-0.8-0.8-1.2l-0.9-1.3c-0.3-0.5-0.7-1-1.1-1.4l0,0v1.5
			c0,0.4,0,0.9,0,1.2c0,1.1,0.1,1.1,0.5,1.1L253.6,1034.4L253.6,1034.4z"/>
		<path class="st0" d="M258.1,1034.3c0.2,0,0.4-0.1,0.4-0.6v-2.9c0-0.6-0.2-0.6-0.4-0.6v-0.1c0.2,0,0.4,0,0.6,0s0.4,0,0.6,0v0.1
			c-0.2,0-0.4,0.1-0.4,0.6v2.9c0,0.6,0.2,0.6,0.4,0.6v0.1c-0.2,0-0.4,0-0.6,0S258.3,1034.4,258.1,1034.3L258.1,1034.3z"/>
		<path class="st0" d="M261.9,1034.3c0.3-0.1,0.4-0.1,0.4-0.6v-3.4h-0.4c-0.7,0-0.8,0.2-0.9,0.6h-0.2c0.1-0.4,0.1-0.4,0.1-0.9h0.1
			c0,0,0.1,0.1,0.2,0.1s0.2,0,0.2,0h2.2c0.2,0,0.3,0,0.4-0.1h0.1c0,0.4,0,0.5,0.1,0.9H264c-0.1-0.3-0.2-0.6-0.9-0.6h-0.4v3.4
			c0,0.5,0.1,0.6,0.4,0.6v0.1c-0.2,0-0.4,0-0.6,0S262.1,1034.4,261.9,1034.3L261.9,1034.3L261.9,1034.3z"/>
		<path class="st0" d="M266.9,1034.3c0.3,0,0.4-0.2,0.4-0.6v-1.3l-0.8-1.2c-0.6-0.9-0.7-1-1-1.1v-0.1c0.3,0,0.5,0,0.7,0s0.4,0,0.7,0
			v0.1c-0.2,0-0.4,0-0.4,0.2c0,0.1,0.3,0.6,0.5,0.8l0.7,0.9l0.4-0.4c0.5-0.6,0.8-1.1,0.8-1.3c0-0.2-0.2-0.2-0.3-0.3v-0.1
			c0.1,0,0.3,0,0.4,0s0.3,0,0.4,0c0,0.5-0.4,1-1,1.7c-0.2,0.2-0.4,0.5-0.5,0.7v1.3c0,0.4,0,0.6,0.4,0.6v0.1c-0.2,0-0.4,0-0.6,0
			s-0.4,0-0.6,0v0H266.9z"/>
	</g>
	<polygon class="st1" points="246.3,905.7 271.6,953.9 296.9,1002 246.3,1002 195.8,1002 221.1,953.9 	"/>
	
		<linearGradient id="SVGID_5_" gradientUnits="userSpaceOnUse" x1="157.2" y1="-573.8" x2="258.3" y2="-573.8" gradientTransform="matrix(1 0 0 -1 0 392)">
		<stop  offset="0" style="stop-color:#FFFFFF"/>
		<stop  offset="2.049065e-02" style="stop-color:#F4F4F4"/>
		<stop  offset="0.1353" style="stop-color:#BCBCBC"/>
		<stop  offset="0.2536" style="stop-color:#8A8A8A"/>
		<stop  offset="0.3728" style="stop-color:#5F5F5F"/>
		<stop  offset="0.493" style="stop-color:#3D3D3D"/>
		<stop  offset="0.6147" style="stop-color:#222222"/>
		<stop  offset="0.7382" style="stop-color:#0F0F0F"/>
		<stop  offset="0.865" style="stop-color:#040404"/>
		<stop  offset="1" style="stop-color:#000000"/>
	</linearGradient>
	<polygon class="st6" points="207.7,927.5 233,965.8 258.3,1004.1 207.7,1004.1 157.2,1004.1 182.4,965.8 	"/>
	
		<linearGradient id="SVGID_6_" gradientUnits="userSpaceOnUse" x1="231.1" y1="-575.9" x2="332.2" y2="-575.9" gradientTransform="matrix(1 0 0 -1 0 392)">
		<stop  offset="0" style="stop-color:#FFFFFF"/>
		<stop  offset="2.049065e-02" style="stop-color:#F4F4F4"/>
		<stop  offset="0.1353" style="stop-color:#BCBCBC"/>
		<stop  offset="0.2536" style="stop-color:#8A8A8A"/>
		<stop  offset="0.3728" style="stop-color:#5F5F5F"/>
		<stop  offset="0.493" style="stop-color:#3D3D3D"/>
		<stop  offset="0.6147" style="stop-color:#222222"/>
		<stop  offset="0.7382" style="stop-color:#0F0F0F"/>
		<stop  offset="0.865" style="stop-color:#040404"/>
		<stop  offset="1" style="stop-color:#000000"/>
	</linearGradient>
	<polygon class="st7" points="281.6,929.6 306.9,967.9 332.2,1006.2 281.6,1006.2 231.1,1006.2 256.3,967.9 	"/>
</g>
<g id="Logos_4">
	<g>
		<path class="st0" d="M135.2,837.6l0.2-0.3c1.2,0,4.8-0.1,5.9-0.2l0.1,0.2v0.1l-0.5,0.5c-0.2,1.3-0.3,5.5-0.3,9.4
			c0,4.2,0.1,8,0.1,9.1c1.7,0.3,3.6,0.4,5.4,0.4c2.2,0,3.4-0.1,4.6-0.4l0.1,0.1l-0.1,0.4c-0.5,0.4-1.5,1-2.2,1.3
			c-1.1,0.3-2.9,0.4-5.1,0.4c-1.4,0-4.7-0.1-6.2-0.2v-0.3c0.1-0.2,0.3-0.5,0.4-0.7c0.1-1,0.3-3.6,0.3-10.1c0-5.9-0.1-8-0.5-8.7
			c-0.3-0.4-1-0.6-2-0.8L135.2,837.6z"/>
		<path class="st0" d="M156.7,854c-0.6,0.1-0.9,0.3-1.1,0.8l-1.6,3.6c-0.1,0.1-0.2,0.2-0.4,0.2l-2-0.2c0-0.1,0-0.2,0-0.3
			c0.7-0.8,2.5-3.2,4.5-7.1c2-3.8,2.6-5.4,2.7-5.8c0.2-0.4,0.3-1,0.3-1.2c0.3-0.3,1-0.8,1.4-1l0.2,0.1c0.2,1,1.1,3.2,3.4,7.8
			c3.2,6.7,3.4,7,4.8,7.3c0,0.1,0,0.3,0,0.4c-0.3,0-0.9,0-1.7,0c-0.9,0-1.9,0-2.7-0.1v-0.2l0.1-0.2c-0.6-1.4-1.3-2.9-1.9-4.2
			c-0.1-0.3-0.2-0.3-0.6-0.3L156.7,854z M156.8,852.3c0,0.1,0.1,0.1,0.2,0.2c0.5,0.1,1.2,0.2,2.2,0.2s1.8,0,2.7-0.1l0.1-0.1
			l-2.7-5.5L156.8,852.3z"/>
		<path class="st0" d="M169.7,843.7l4.7-0.3l0.1,0.2l-0.2,0.4c-0.2,1.4-0.2,3.7-0.2,6.3c0.7-0.1,1.7-0.6,2.2-1
			c0.9-1.1,2.9-3.9,3.9-5.4v-0.5c1.5,0,3.5,0.2,4,0.3v0.5c-1.1,0.1-1.5,0.2-2.8,1.3c-0.7,0.6-3.2,3.1-4,4.1v0.1
			c6.9,8,7.4,8.4,8.4,8.8c0,0.2,0,0.4-0.2,0.4c-0.7,0-3-0.4-3.9-0.7c-1.5-1.2-4.6-4.6-6.7-7.1h-1c-0.1,1.6,0,4.5,0.1,6.7l-0.1,0.1
			l-0.8,0.1l-1.9,0.5l-0.3-0.1c0.2-0.8,0.3-3.7,0.3-7.8c0-4.4-0.1-5.7-0.5-6.2c-0.2-0.2-0.6-0.4-1.2-0.5L169.7,843.7L169.7,843.7z"
			/>
		<path class="st0" d="M187.4,843.4c1.6,0.1,3.5,0.2,4.5,0.2h2.8c1.3,0,2.4-0.1,2.8-0.3l0.2,0.1v2.9v0.1l-0.3,0.2h-0.1l-1.3-1.7
			c-0.1-0.2-0.3-0.2-0.5-0.2l-4.8,0.3v4.9l0.1,0.1c0.6,0.1,1.9,0.1,2.8,0.1c1.5,0,2.4,0,3.4-0.1c0,0.1,0.1,0.1,0.1,0.2
			c0,0.1,0,0.1-0.1,0.2c-0.4,0.3-0.9,0.6-1.3,0.9c-1.7,0.2-4,0.4-5,0.4v5c1.1,0.3,2.8,0.4,4.7,0.4c1.5,0,2.2-0.1,3.3-0.3v0.1
			l-0.1,0.3c-0.5,0.4-1.1,0.8-1.7,1.1c-1,0.3-2.3,0.4-4.1,0.4c-1.1,0-2.3,0-4-0.1l-1,0.3l-0.2-0.2c0.2-1.5,0.3-3.9,0.3-7.9
			c0-3.9-0.1-5.1-0.4-5.4c-0.3-0.3-0.8-0.4-1.8-0.5v-0.3L187.4,843.4z"/>
		<path class="st0" d="M226.3,840.8c-0.4-1.2-2.6-2.8-5.8-2.8c-3.4,0-5,1-6,1.9c-1.1,1-2.6,3.1-2.6,6.7c0,5.2,2.7,10.3,9.4,10.3
			c3.5,0,5.2-1.1,6.8-2.4h0.2l-0.2,0.9l-2.2,2.2c-1.2,0.7-3.2,1.4-6.4,1.4c-7,0-11-5.1-11-10.9c0-4.4,1.9-7.1,4.7-9.2
			c1.7-1.1,4.1-2.3,8.2-2.3c3.8,0,6,1.1,6.3,1.5v0.2l-1,1.7l-0.2,0.6L226.3,840.8z"/>
		<path class="st0" d="M234.2,854c-0.6,0.1-0.9,0.3-1.1,0.8l-1.6,3.6c-0.1,0.1-0.2,0.2-0.4,0.2l-2-0.2c0-0.1,0-0.2,0-0.3
			c0.7-0.8,2.5-3.2,4.5-7.1c2-3.8,2.6-5.4,2.7-5.8c0.2-0.4,0.3-1,0.3-1.2c0.3-0.3,1-0.8,1.4-1l0.2,0.1c0.2,1,1.1,3.2,3.4,7.8
			c3.2,6.7,3.4,7,4.8,7.3c0,0.1,0,0.3,0,0.4c-0.3,0-0.9,0-1.7,0c-0.9,0-1.9,0-2.7-0.1v-0.2l0.1-0.2c-0.6-1.4-1.3-2.9-1.9-4.2
			c-0.1-0.3-0.2-0.3-0.6-0.3L234.2,854z M234.3,852.3c0,0.1,0.1,0.1,0.2,0.2c0.5,0.1,1.2,0.2,2.2,0.2s1.8,0,2.7-0.1l0.1-0.1
			l-2.7-5.5L234.3,852.3z"/>
		<path class="st0" d="M252.9,858.8c-0.3-1-1-2.7-3.4-8.1c-2.4-5.5-2.7-5.9-3.3-6.3c-0.3-0.2-0.8-0.3-1.3-0.3v-0.3l0.2-0.2
			c1-0.1,3.7-0.2,4.7-0.2v0.3l-0.3,0.3l4.5,10.8h0.1l2.8-6c1-2.1,1.8-4.1,2-5.2c0.1-0.1,0.2-0.1,0.3-0.1l2.2,0.1
			c0.1,0.1,0.1,0.2,0.1,0.3c-0.7,0.7-2.2,2.8-3.9,6.4c-2.5,5-3.2,6.5-3.3,7.8c-0.4,0.2-1.1,0.7-1.3,0.9L252.9,858.8z"/>
		<path class="st0" d="M265.4,854c-0.6,0.1-0.9,0.3-1.1,0.8l-1.6,3.6c-0.1,0.1-0.2,0.2-0.4,0.2l-2-0.2c0-0.1,0-0.2,0-0.3
			c0.7-0.8,2.5-3.2,4.5-7.1c2-3.8,2.6-5.4,2.7-5.8c0.2-0.4,0.3-1,0.3-1.2c0.3-0.3,1-0.8,1.4-1l0.2,0.1c0.2,1,1.1,3.2,3.4,7.8
			c3.2,6.7,3.4,7,4.8,7.3c0,0.1,0,0.3,0,0.4c-0.3,0-0.9,0-1.7,0c-0.9,0-1.9,0-2.7-0.1v-0.2l0.1-0.2c-0.6-1.4-1.3-2.9-1.9-4.2
			c-0.1-0.3-0.2-0.3-0.6-0.3L265.4,854z M265.4,852.3c0,0.1,0.1,0.1,0.2,0.2c0.5,0.1,1.2,0.2,2.2,0.2s1.8,0,2.7-0.1l0.1-0.1
			l-2.7-5.5L265.4,852.3z"/>
		<path class="st0" d="M278.1,843.6l2.6-0.1l0.8-0.2h0.3c0.4,0.4,3.4,3.8,5.1,5.6c2.8,3.1,4.7,5,5.5,5.7c0-1.2,0-4.2,0-5.7
			c0-2.5-0.2-4.1-0.3-4.9l0.1-0.2c0.6-0.2,1.7-0.4,2.3-0.5c0.1,0,0.1,0.1,0.1,0.2l-0.4,0.6c-0.3,1.1-0.5,6-0.5,8
			c0,2.9,0,5.3,0.2,6.7l-0.2,0.2l-1-0.3c-2-1.9-9.5-9.8-11.2-11.8h-0.1c0,2.8,0,8.4,0.3,11.3l-0.1,0.1l-0.9,0.1l-1.2,0.4l-0.2-0.2
			c0.4-1.3,0.6-5.6,0.7-9c0.1-2.9,0-4.2-0.3-4.7c-0.4-0.5-0.8-0.6-1.8-0.8l-0.1-0.2L278.1,843.6z"/>
		<path class="st0" d="M301.3,854c-0.6,0.1-0.9,0.3-1.1,0.8l-1.6,3.6c-0.1,0.1-0.2,0.2-0.4,0.2l-2-0.2c0-0.1,0-0.2,0-0.3
			c0.7-0.8,2.5-3.2,4.5-7.1c2-3.8,2.6-5.4,2.7-5.8c0.2-0.4,0.3-1,0.3-1.2c0.3-0.3,1-0.8,1.4-1l0.2,0.1c0.2,1,1.1,3.2,3.4,7.8
			c3.2,6.7,3.4,7,4.8,7.3c0,0.1,0,0.3,0,0.4c-0.3,0-0.9,0-1.7,0c-0.9,0-1.9,0-2.7-0.1v-0.2l0.1-0.2c-0.6-1.4-1.3-2.9-1.9-4.2
			c-0.1-0.3-0.2-0.3-0.6-0.3L301.3,854z M301.4,852.3c0,0.1,0.1,0.1,0.2,0.2c0.5,0.1,1.2,0.2,2.2,0.2s1.8,0,2.7-0.1l0.1-0.1
			l-2.7-5.5L301.4,852.3z"/>
		<path class="st0" d="M314.4,843.6l4.7-0.1v0.3l-0.3,0.4c-0.1,0.5-0.2,2.6-0.2,4.6c0,5.2,0.3,6.3,1.6,7.4c0.9,0.8,1.9,1.1,3.5,1.1
			c1.7,0,2.9-0.5,3.6-1.6c0.6-0.9,0.9-1.9,0.9-4.9c0-3.4-0.2-5.5-0.4-6.6l0.1-0.2c0.4-0.1,1.6-0.4,2-0.5l0.2,0.1
			c-0.3,1.5-0.4,5.4-0.4,7.1c0,2.2-0.1,4.1-1.1,5.7c-1,1.6-2.8,2.5-5.5,2.5s-4.4-0.5-5.7-1.8c-1-1-1.5-2.5-1.5-5.6
			c0-5.9-0.2-6.5-0.4-6.8c-0.1-0.2-0.6-0.4-1.2-0.4V844L314.4,843.6z"/>
		<path class="st0" d="M347,846.7c-0.6-1.4-2.3-2.3-4.8-2.3c-2.4,0-3.5,0.7-4.2,1.2c-1.1,1-1.8,2.3-1.8,4.3c0,4.5,3,7.4,6.7,7.4
			c1.2,0,2.6-0.3,3-0.4c0-0.8,0.1-3.3-0.1-4.4l-1.1-0.2V852l0.2-0.3c0.9-0.2,3.1-0.4,3.9-0.4l0.1,0.3l-0.3,0.4
			c-0.1,1.3-0.2,3.4-0.2,4.4l0.4,0.2c0,0.2,0,0.3,0,0.4c-1.7,0.8-4,1.8-7.5,1.8c-4.9,0-7.8-3.4-7.8-7.8c0-2.7,1.2-4.8,3.5-6.3
			c1.5-1,3.6-1.6,6-1.6c2.8,0,4.7,0.7,5.3,1.1v0.3l-0.7,1.3l-0.2,0.8L347,846.7z"/>
		<path class="st0" d="M356.3,843.4l0.1,0.2l-0.3,0.4c-0.3,1.1-0.3,4.7-0.3,5.5c0.1,0.2,0.2,0.3,0.4,0.4c0.5,0.2,2.7,0.2,4.6,0.2
			c1.2,0,3.7-0.2,4.1-0.3l0.1-0.1c0-0.6,0-4.6-0.2-5.5l0.1-0.2c0.5-0.2,2.3-0.6,2.9-0.7l0.1,0.2c-0.2,0.7-0.3,3.2-0.3,6.9
			c0,1.3,0,3.7,0.2,5l0.6,0.4l0,0c-0.2,0.3-0.3,0.4-0.4,1c-0.1,0.4-0.2,0.7-0.3,1l-2.5,1l-0.4-0.2c0.1-1.1,0.1-2.7,0.1-4.2v-3
			c0-0.2-0.1-0.3-0.4-0.3l-8.6,0.5l-0.2,0.3c0,1.1,0,3.9,0.2,6.2l-0.1,0.1l-0.8,0.1l-2,0.6l-0.2-0.2c0.1-0.9,0.2-3.7,0.2-7.8
			c0-4.4-0.1-5.7-0.5-6.2c-0.2-0.2-0.6-0.4-1.3-0.5V844l0.1-0.3L356.3,843.4z"/>
		<path class="st0" d="M224.3,872c-0.2,0.3-0.8,1.3-2.2,1.3c-1.6,0-2.9-1.2-2.9-3.3c0-1.9,1.3-3.3,2.9-3.3c0.7,0,1.2,0.2,1.3,0.2
			s0.2-0.1,0.2-0.2h0.2c0,0.5,0.2,1.1,0.2,1.4h-0.2c-0.2-0.4-0.6-1.1-1.7-1.1c-1.3,0-2.3,1-2.3,2.8c0,2,1,2.9,2.3,2.9
			c1,0,1.5-0.6,1.8-1L224.3,872z"/>
		<path class="st0" d="M226.5,870c0-1.7,1.4-3.3,3.1-3.3c1.7,0,3.1,1.4,3.1,3.3c0,1.9-1.4,3.3-3.1,3.3
			C228.1,873.3,226.5,872.2,226.5,870z M229.6,872.8c1.3,0,2.4-1.1,2.4-2.9c0-1.7-1.1-2.8-2.4-2.8c-1.3,0-2.4,1.2-2.4,2.8
			C227.2,872,228.5,872.8,229.6,872.8z"/>
		<path class="st0" d="M235.6,869.7c0.1-1.2,0.1-0.9,0.1-1.8c0-0.9-0.3-0.8-0.5-0.9v-0.2c0.2,0,0.5,0,0.7,0s0.4,0,0.6,0l2,5.1l2-5.1
			c0.2,0,0.5,0,0.8,0c0.2,0,0.4,0,0.6,0v0.2c-0.3,0.1-0.5,0.1-0.5,0.7c0,0.1,0,0.2,0,0.3l0.2,3.2c0.1,1.4,0,1.5,0.6,1.8v0.2
			c-0.3,0-0.6,0-0.9,0c-0.3,0-0.7,0-1,0V873c0.4-0.1,0.7-0.1,0.7-0.7c0-0.2,0-0.3,0-0.5l-0.3-4.4l0,0l-1,2.4c-0.4,1.1-1,2.6-1.2,3.3
			h-0.1c-0.5-1.2-0.9-2.4-1.4-3.6l-0.8-2.1l0,0l-0.2,4.1c0,0.2,0,0.4,0,0.6c0,0.8,0.4,0.8,0.7,0.8v0.2c-0.2,0-0.5,0-0.7,0
			s-0.3,0-0.5,0L235.6,869.7z"/>
		<path class="st0" d="M244.9,869.7c0.1-1.2,0.1-0.9,0.1-1.8c0-0.9-0.3-0.8-0.5-0.9v-0.2c0.2,0,0.5,0,0.7,0s0.4,0,0.6,0l2,5.1l2-5.1
			c0.2,0,0.5,0,0.8,0c0.2,0,0.4,0,0.6,0v0.2c-0.3,0.1-0.5,0.1-0.5,0.7c0,0.1,0,0.2,0,0.3l0.2,3.2c0.1,1.4,0,1.5,0.6,1.8v0.2
			c-0.3,0-0.6,0-0.9,0c-0.3,0-0.7,0-1,0V873c0.4-0.1,0.7-0.1,0.7-0.7c0-0.2,0-0.3,0-0.5l-0.3-4.4l0,0l-1,2.4c-0.4,1.1-1,2.6-1.2,3.3
			h-0.1c-0.5-1.2-0.9-2.4-1.4-3.6l-0.8-2.1l0,0l-0.2,4.1c0,0.2,0,0.4,0,0.6c0,0.8,0.4,0.8,0.7,0.8v0.2c-0.2,0-0.5,0-0.7,0
			s-0.3,0-0.5,0L244.9,869.7z"/>
		<path class="st0" d="M258.9,871.1c0,2-1.6,2.2-2.4,2.2c-2.2,0-2.3-1.5-2.3-2.2v-3.2c0-0.4,0-0.8-0.6-0.9v-0.2c0.3,0,0.6,0,0.9,0
			c0.3,0,0.6,0,0.9,0v0.2c-0.4,0-0.5,0.2-0.5,0.9v3.2c0,0.4,0,1.7,1.8,1.7c1.4,0,1.8-0.9,1.8-1.7v-3.2c0-0.5-0.1-0.9-0.6-0.9v-0.2
			c0.3,0,0.5,0,0.8,0c0.2,0,0.5,0,0.7,0v0.2c-0.5,0-0.5,0.4-0.5,0.9L258.9,871.1L258.9,871.1z"/>
		<path class="st0" d="M263.3,873.1c-0.2,0-0.4,0-0.6,0s-0.4,0-0.6,0c0-0.6,0.1-1.2,0.1-2.2v-2.4c0-1.3-0.1-1.4-0.5-1.5v-0.2
			c0.2,0,0.4,0,0.6,0s0.4,0,0.7,0l3.5,4.9l0,0v-3c0-1.5,0-1.7-0.7-1.8v-0.2c0.2,0,0.5,0,0.7,0s0.4,0,0.5,0c0,0.2-0.1,0.8-0.1,2.3
			v1.3c0,1.6,0,2.4,0,2.8h-0.3c-0.4-0.6-0.8-1.1-1.2-1.7l-1.3-1.9c-0.5-0.7-1-1.4-1.5-2l0,0v2.2c0,0.6,0,1.2,0,1.7
			c0,1.6,0.2,1.6,0.7,1.6L263.3,873.1L263.3,873.1z"/>
		<path class="st0" d="M269.7,873c0.3,0,0.5-0.1,0.5-0.9v-4.2c0-0.8-0.2-0.9-0.5-0.9v-0.2c0.3,0,0.6,0,0.9,0s0.6,0,0.8,0v0.2
			c-0.3,0-0.5,0.1-0.5,0.9v4.2c0,0.8,0.3,0.9,0.5,0.9v0.2c-0.3,0-0.6,0-0.8,0c-0.3,0-0.6,0-0.9,0V873z"/>
		<path class="st0" d="M275.2,873c0.4-0.1,0.5-0.1,0.5-0.9v-4.8h-0.6c-1.1,0-1.2,0.3-1.4,0.8h-0.2c0.1-0.5,0.2-0.6,0.2-1.3h0.2
			c0,0.1,0.1,0.1,0.2,0.1s0.2,0,0.3,0h3.2c0.3,0,0.5,0,0.5-0.1h0.2c0,0.6,0.1,0.8,0.2,1.3h-0.2c-0.1-0.4-0.3-0.8-1.4-0.8h-0.6v4.8
			c0,0.7,0.1,0.8,0.5,0.9v0.2c-0.3,0-0.6,0-0.9,0s-0.5,0-0.8,0L275.2,873L275.2,873z"/>
		<path class="st0" d="M282.3,873c0.5,0,0.5-0.3,0.5-0.9v-1.9l-1.2-1.7c-0.9-1.3-1-1.4-1.5-1.5v-0.2c0.4,0,0.7,0,1.1,0
			c0.3,0,0.6,0,0.9,0v0.2c-0.2,0-0.5,0-0.5,0.3c0,0.2,0.4,0.8,0.7,1.2l0.9,1.3l0.6-0.6c0.8-0.9,1.1-1.5,1.1-1.8s-0.3-0.3-0.5-0.4
			v-0.2c0.2,0,0.4,0,0.5,0c0.2,0,0.4,0,0.6,0c0,0.7-0.6,1.4-1.4,2.4c-0.3,0.3-0.6,0.7-0.8,1v1.9c0,0.6,0.1,0.9,0.5,0.9v0.2
			c-0.3,0-0.6,0-0.8,0c-0.3,0-0.6,0-0.9,0V873H282.3z"/>
	</g>
	<polygon class="st1" points="252.9,689.4 289,758.1 325.1,826.9 252.9,826.9 180.7,826.9 216.8,758.1 	"/>
	
		<linearGradient id="SVGID_7_" gradientUnits="userSpaceOnUse" x1="125.6" y1="-383.2" x2="270" y2="-383.2" gradientTransform="matrix(1 0 0 -1 0 392)">
		<stop  offset="0" style="stop-color:#FFFFFF"/>
		<stop  offset="2.049065e-02" style="stop-color:#F4F4F4"/>
		<stop  offset="0.1353" style="stop-color:#BCBCBC"/>
		<stop  offset="0.2536" style="stop-color:#8A8A8A"/>
		<stop  offset="0.3728" style="stop-color:#5F5F5F"/>
		<stop  offset="0.493" style="stop-color:#3D3D3D"/>
		<stop  offset="0.6147" style="stop-color:#222222"/>
		<stop  offset="0.7382" style="stop-color:#0F0F0F"/>
		<stop  offset="0.865" style="stop-color:#040404"/>
		<stop  offset="1" style="stop-color:#000000"/>
	</linearGradient>
	<polygon class="st8" points="197.8,720.5 233.9,775.2 270,829.9 197.8,829.9 125.6,829.9 161.7,775.2 	"/>
	
		<linearGradient id="SVGID_8_" gradientUnits="userSpaceOnUse" x1="231.1" y1="-386.2" x2="375.6" y2="-386.2" gradientTransform="matrix(1 0 0 -1 0 392)">
		<stop  offset="0" style="stop-color:#FFFFFF"/>
		<stop  offset="2.049065e-02" style="stop-color:#F4F4F4"/>
		<stop  offset="0.1353" style="stop-color:#BCBCBC"/>
		<stop  offset="0.2536" style="stop-color:#8A8A8A"/>
		<stop  offset="0.3728" style="stop-color:#5F5F5F"/>
		<stop  offset="0.493" style="stop-color:#3D3D3D"/>
		<stop  offset="0.6147" style="stop-color:#222222"/>
		<stop  offset="0.7382" style="stop-color:#0F0F0F"/>
		<stop  offset="0.865" style="stop-color:#040404"/>
		<stop  offset="1" style="stop-color:#000000"/>
	</linearGradient>
	<polygon class="st9" points="303.3,723.5 339.4,778.2 375.6,832.9 303.3,832.9 231.1,832.9 267.2,778.2 	"/>
</g>
<g id="Logos_3">
	<g>
		<path class="st0" d="M105.9,595.9l0.3-0.4c1.5,0,6.2-0.1,7.6-0.2l0.1,0.2v0.2l-0.7,0.7c-0.2,1.7-0.3,7.1-0.3,12.2
			c0,5.5,0.1,10.4,0.2,11.8c2.2,0.4,4.7,0.6,7,0.6c2.8,0,4.4-0.1,5.9-0.6l0.1,0.2l-0.1,0.5c-0.7,0.5-2,1.3-2.9,1.7
			c-1.4,0.4-3.8,0.5-6.6,0.5c-1.8,0-6.1-0.1-8.1-0.2v-0.3c0.2-0.2,0.4-0.7,0.5-1c0.2-1.2,0.3-4.7,0.3-13.1c0-7.6-0.1-10.5-0.7-11.3
			c-0.4-0.6-1.3-0.8-2.6-1.1L105.9,595.9z"/>
		<path class="st0" d="M133.9,617.3c-0.8,0.1-1.2,0.3-1.5,1l-2.1,4.7c-0.1,0.1-0.3,0.2-0.5,0.2l-2.7-0.2c0-0.1,0-0.3,0-0.4
			c1-1,3.3-4.2,5.9-9.3c2.6-4.9,3.4-7,3.6-7.6c0.2-0.5,0.4-1.2,0.4-1.6c0.4-0.4,1.3-1.1,1.8-1.3l0.3,0.1c0.2,1.3,1.5,4.2,4.4,10.1
			c4.2,8.7,4.5,9.1,6.2,9.5c0,0.1,0,0.4,0,0.5c-0.4,0-1.2,0-2.2,0c-1.2,0-2.5,0-3.5-0.1v-0.2l0.1-0.3c-0.8-1.8-1.7-3.7-2.5-5.4
			c-0.2-0.3-0.3-0.4-0.7-0.3L133.9,617.3z M134,615c0,0.1,0.1,0.2,0.2,0.2c0.7,0.2,1.6,0.2,2.9,0.2c1.2,0,2.4,0,3.6-0.1l0.1-0.1
			l-3.4-7.2L134,615z"/>
		<path class="st0" d="M150.7,603.9l6.1-0.3l0.1,0.2l-0.3,0.6c-0.2,1.8-0.3,4.9-0.3,8.2c1-0.2,2.2-0.7,2.9-1.2c1.2-1.5,3.7-5.1,5-7
			v-0.7c1.9,0,4.6,0.2,5.2,0.4v0.6c-1.5,0.1-2,0.3-3.7,1.7c-1,0.7-4.1,4.1-5.1,5.3v0.2c9,10.4,9.6,10.9,10.9,11.4
			c0,0.2,0,0.5-0.2,0.6c-1,0-3.9-0.5-5-0.9c-2-1.6-6-6-8.8-9.2h-1.2c-0.1,2.1,0,5.8,0.2,8.8l-0.2,0.2l-1,0.1l-2.5,0.7l-0.3-0.2
			c0.3-1.1,0.4-4.9,0.4-10.1c0-5.7-0.1-7.4-0.7-8c-0.2-0.3-0.7-0.5-1.6-0.7v-0.2L150.7,603.9z"/>
		<path class="st0" d="M173.7,603.6c2.1,0.2,4.5,0.2,5.9,0.2h3.7c1.7,0,3.1-0.2,3.7-0.4l0.2,0.1v3.7v0.1l-0.4,0.2h-0.1l-1.7-2.2
			c-0.2-0.2-0.3-0.3-0.7-0.3l-6.3,0.4v6.4l0.1,0.2c0.8,0.1,2.4,0.1,3.6,0.1c2,0,3.1,0,4.5-0.2c0,0.1,0.1,0.2,0.1,0.2
			c0,0.1,0,0.2-0.1,0.3c-0.5,0.3-1.1,0.8-1.7,1.1c-2.2,0.2-5.1,0.5-6.6,0.5v6.5c1.5,0.3,3.7,0.5,6.1,0.5c2,0,2.9-0.1,4.3-0.4v0.1
			l-0.1,0.4c-0.6,0.5-1.5,1.1-2.2,1.5c-1.3,0.4-3,0.5-5.3,0.5c-1.4,0-2.9,0-5.2-0.1l-1.2,0.4l-0.2-0.2c0.2-2,0.3-5.1,0.3-10.3
			c0-5.1-0.2-6.6-0.6-7.1c-0.3-0.3-1.1-0.5-2.4-0.7v-0.3L173.7,603.6z"/>
		<path class="st0" d="M224.4,600.2c-0.5-1.6-3.3-3.6-7.6-3.6c-4.4,0-6.6,1.3-7.8,2.4c-1.5,1.2-3.3,4-3.3,8.8
			c0,6.7,3.5,13.3,12.2,13.3c4.6,0,6.8-1.4,8.9-3.1h0.3l-0.2,1.2l-2.9,2.9c-1.6,0.9-4.2,1.8-8.3,1.8c-9.1,0-14.2-6.6-14.2-14.2
			c0-5.7,2.4-9.2,6.1-11.9c2.2-1.5,5.3-2.9,10.7-2.9c5,0,7.8,1.4,8.2,2v0.2l-1.3,2.2l-0.2,0.8L224.4,600.2z"/>
		<path class="st0" d="M234.7,617.3c-0.8,0.1-1.2,0.3-1.5,1l-2.1,4.7c-0.1,0.1-0.3,0.2-0.5,0.2L228,623c0-0.1,0-0.3,0-0.4
			c1-1,3.3-4.2,5.9-9.3c2.6-4.9,3.4-7,3.6-7.6c0.2-0.5,0.4-1.2,0.4-1.6c0.4-0.4,1.3-1.1,1.8-1.3l0.3,0.1c0.2,1.3,1.5,4.2,4.4,10.1
			c4.2,8.7,4.5,9.1,6.2,9.5c0,0.1,0,0.4,0,0.5c-0.4,0-1.2,0-2.2,0c-1.2,0-2.5,0-3.5-0.1v-0.2l0.1-0.3c-0.8-1.8-1.7-3.7-2.5-5.4
			c-0.2-0.3-0.3-0.4-0.7-0.3L234.7,617.3z M234.8,615c0,0.1,0.1,0.2,0.2,0.2c0.7,0.2,1.6,0.2,2.9,0.2c1.2,0,2.4,0,3.6-0.1l0.1-0.1
			l-3.4-7.2L234.8,615z"/>
		<path class="st0" d="M258.9,623.5c-0.3-1.3-1.2-3.6-4.4-10.5c-3.2-7.1-3.5-7.7-4.2-8.1c-0.4-0.2-1.1-0.3-1.7-0.4v-0.3l0.2-0.3
			c1.3-0.1,4.8-0.2,6.1-0.2v0.4l-0.3,0.4l5.9,14h0.1l3.7-7.8c1.3-2.8,2.3-5.4,2.7-6.8c0.1-0.1,0.2-0.2,0.3-0.2l2.9,0.2
			c0.1,0.1,0.1,0.2,0.1,0.4c-0.9,0.9-2.8,3.7-5.1,8.3c-3.2,6.4-4.1,8.5-4.3,10.1c-0.5,0.2-1.4,0.9-1.7,1.2L258.9,623.5z"/>
		<path class="st0" d="M275.1,617.3c-0.8,0.1-1.2,0.3-1.5,1l-2.1,4.7c-0.1,0.1-0.3,0.2-0.5,0.2l-2.7-0.2c0-0.1,0-0.3,0-0.4
			c1-1,3.3-4.2,5.9-9.3c2.6-4.9,3.4-7,3.6-7.6c0.2-0.5,0.4-1.2,0.4-1.6c0.4-0.4,1.3-1.1,1.8-1.3l0.3,0.1c0.2,1.3,1.5,4.2,4.4,10.1
			c4.2,8.7,4.5,9.1,6.2,9.5c0,0.1,0,0.4,0,0.5c-0.4,0-1.2,0-2.2,0c-1.2,0-2.5,0-3.5-0.1v-0.2l0.1-0.3c-0.8-1.8-1.7-3.7-2.5-5.4
			c-0.2-0.3-0.3-0.4-0.7-0.3L275.1,617.3z M275.2,615c0,0.1,0.1,0.2,0.2,0.2c0.7,0.2,1.6,0.2,2.9,0.2c1.2,0,2.4,0,3.6-0.1l0.1-0.1
			l-3.4-7.2L275.2,615z"/>
		<path class="st0" d="M291.7,603.7l3.4-0.2l1-0.2h0.4c0.5,0.6,4.4,4.9,6.6,7.3c3.7,4.1,6.1,6.5,7.1,7.5c0-1.5,0-5.4,0-7.3
			c0-3.3-0.2-5.3-0.4-6.4l0.1-0.3c0.7-0.2,2.2-0.5,3-0.7c0.1,0,0.1,0.2,0.1,0.2l-0.5,0.8c-0.4,1.4-0.7,7.8-0.7,10.4
			c0,3.8,0,6.9,0.2,8.8l-0.2,0.2l-1.3-0.3c-2.6-2.4-12.3-12.7-14.5-15.3h0c0,3.6,0,10.9,0.3,14.7l-0.1,0.2l-1.1,0.1l-1.5,0.5
			l-0.2-0.3c0.5-1.7,0.8-7.2,1-11.7c0.1-3.8,0-5.4-0.4-6.1c-0.5-0.6-1-0.8-2.4-1l-0.1-0.2L291.7,603.7z"/>
		<path class="st0" d="M321.8,617.3c-0.8,0.1-1.2,0.3-1.5,1l-2.1,4.7c-0.1,0.1-0.3,0.2-0.5,0.2L315,623c0-0.1,0-0.3,0-0.4
			c1-1,3.3-4.2,5.9-9.3c2.6-4.9,3.4-7,3.6-7.6c0.2-0.5,0.4-1.2,0.4-1.6c0.4-0.4,1.3-1.1,1.8-1.3l0.3,0.1c0.2,1.3,1.5,4.2,4.4,10.1
			c4.2,8.7,4.5,9.1,6.2,9.5c0,0.1,0,0.4,0,0.5c-0.4,0-1.2,0-2.2,0c-1.2,0-2.5,0-3.5-0.1v-0.2l0.1-0.3c-0.8-1.8-1.7-3.7-2.5-5.4
			c-0.2-0.3-0.3-0.4-0.7-0.3L321.8,617.3z M321.9,615c0,0.1,0.1,0.2,0.2,0.2c0.7,0.2,1.6,0.2,2.9,0.2c1.2,0,2.4,0,3.6-0.1l0.1-0.1
			l-3.4-7.2L321.9,615z"/>
		<path class="st0" d="M338.8,603.7l6.1-0.2v0.4l-0.4,0.5c-0.2,0.7-0.3,3.4-0.3,5.9c0,6.7,0.4,8.2,2,9.7c1.1,1,2.5,1.4,4.5,1.4
			c2.2,0,3.8-0.7,4.7-2c0.8-1.2,1.1-2.4,1.1-6.4c0-4.5-0.3-7.1-0.5-8.6l0.1-0.2c0.6-0.1,2-0.5,2.7-0.7l0.2,0.2
			c-0.4,1.9-0.5,7-0.5,9.2c0,2.8-0.1,5.3-1.4,7.3s-3.6,3.3-7.1,3.3s-5.8-0.6-7.4-2.4c-1.2-1.3-1.9-3.2-1.9-7.2
			c0-7.7-0.2-8.5-0.6-8.9c-0.2-0.2-0.8-0.5-1.5-0.5v-0.4L338.8,603.7z"/>
		<path class="st0" d="M381.2,607.8c-0.8-1.8-3-2.9-6.2-2.9s-4.5,0.9-5.4,1.6c-1.5,1.3-2.3,2.9-2.3,5.6c0,5.9,3.9,9.7,8.7,9.7
			c1.6,0,3.3-0.3,3.9-0.6c0-1,0.1-4.2-0.1-5.7l-1.5-0.3v-0.3l0.2-0.4c1.2-0.2,4-0.6,5.1-0.6l0.1,0.4l-0.4,0.5
			c-0.2,1.7-0.3,4.4-0.2,5.7l0.5,0.2c0,0.2,0,0.4,0,0.5c-2.2,1-5.2,2.4-9.8,2.4c-6.3,0-10.2-4.4-10.2-10.2c0-3.4,1.6-6.2,4.6-8.1
			c1.9-1.3,4.7-2,7.8-2c3.7,0,6.1,1,6.9,1.4v0.4l-0.9,1.7l-0.2,1L381.2,607.8z"/>
		<path class="st0" d="M393.3,603.6l0.2,0.2l-0.3,0.6c-0.3,1.5-0.3,6.1-0.3,7.1c0.1,0.2,0.2,0.4,0.5,0.5c0.7,0.2,3.5,0.3,5.9,0.3
			c1.5,0,4.9-0.2,5.4-0.3l0.2-0.2c0-0.8,0-6-0.2-7.1l0.1-0.2c0.7-0.2,3-0.8,3.8-1l0.2,0.2c-0.2,0.9-0.4,4.2-0.4,8.9
			c0,1.7,0,4.8,0.2,6.5l0.8,0.5l0,0c-0.3,0.3-0.4,0.6-0.6,1.2c-0.1,0.5-0.2,1-0.4,1.3l-3.2,1.3l-0.5-0.2c0.1-1.5,0.1-3.5,0.1-5.5
			v-3.9c0-0.3-0.2-0.4-0.5-0.4l-11.2,0.7l-0.2,0.3c0,1.4,0,5.1,0.2,8l-0.1,0.2l-1,0.1l-2.6,0.8l-0.2-0.2c0.1-1.2,0.3-4.8,0.3-10.2
			c0-5.7-0.1-7.5-0.6-8c-0.2-0.3-0.8-0.5-1.7-0.7v-0.2l0.2-0.3L393.3,603.6z"/>
		<path class="st0" d="M221.7,640.6c-0.3,0.4-1.1,1.7-2.8,1.7c-2.1,0-3.8-1.6-3.8-4.3c0-2.5,1.7-4.3,3.8-4.3c0.9,0,1.5,0.3,1.8,0.3
			c0.2,0,0.2-0.1,0.3-0.2h0.3c0,0.7,0.2,1.4,0.3,1.8l-0.3,0.1c-0.2-0.6-0.8-1.4-2.2-1.4c-1.7,0-3,1.3-3,3.7c0,2.6,1.3,3.8,3,3.8
			c1.4,0,2-0.8,2.4-1.3L221.7,640.6z"/>
		<path class="st0" d="M224.6,638.1c0-2.3,1.8-4.2,4.1-4.2s4.1,1.8,4.1,4.2s-1.8,4.3-4.1,4.3C226.7,642.3,224.6,640.9,224.6,638.1z
			 M228.7,641.8c1.7,0,3.2-1.4,3.2-3.7s-1.4-3.7-3.2-3.7c-1.7,0-3.1,1.5-3.1,3.7C225.6,640.6,227.1,641.8,228.7,641.8z"/>
		<path class="st0" d="M236.5,637.7c0.1-1.6,0.1-1.2,0.1-2.3c0-1.2-0.5-1-0.7-1.2V634c0.3,0,0.6,0.1,1,0.1c0.3,0,0.5-0.1,0.8-0.1
			l2.6,6.7l2.6-6.7c0.3,0,0.6,0.1,1,0.1c0.3,0,0.5-0.1,0.8-0.1v0.2c-0.4,0.1-0.7,0.2-0.7,0.9c0,0.2,0,0.3,0,0.5l0.3,4.1
			c0.1,1.9,0.1,2,0.8,2.3v0.2c-0.4,0-0.8-0.1-1.1-0.1c-0.4,0-0.9,0-1.3,0.1V642c0.6-0.1,0.9-0.1,0.9-0.9c0-0.2,0-0.4,0-0.7l-0.4-5.7
			l0,0l-1.3,3.2c-0.6,1.4-1.2,3.3-1.6,4.3h-0.2c-0.6-1.6-1.2-3.1-1.9-4.6l-1.1-2.7l0,0l-0.3,5.3c0,0.2,0,0.5,0,0.7
			c0,1,0.5,1,0.9,1.1v0.2c-0.3,0-0.6-0.1-0.9-0.1c-0.2,0-0.5,0-0.7,0.1L236.5,637.7z"/>
		<path class="st0" d="M248.6,637.7c0.1-1.6,0.1-1.2,0.1-2.3c0-1.2-0.5-1-0.7-1.2V634c0.3,0,0.6,0.1,1,0.1c0.3,0,0.5-0.1,0.8-0.1
			l2.6,6.7l2.6-6.7c0.3,0,0.6,0.1,1,0.1c0.3,0,0.5-0.1,0.8-0.1v0.2c-0.4,0.1-0.7,0.2-0.7,0.9c0,0.2,0,0.3,0,0.5l0.3,4.1
			c0.1,1.9,0.1,2,0.8,2.3v0.2c-0.4,0-0.8-0.1-1.1-0.1c-0.4,0-0.9,0-1.3,0.1V642c0.6-0.1,0.9-0.1,0.9-0.9c0-0.2,0-0.4,0-0.7l-0.4-5.7
			l0,0l-1.3,3.2c-0.6,1.4-1.2,3.3-1.6,4.3h-0.2c-0.6-1.6-1.2-3.1-1.9-4.6l-1.1-2.7l0,0l-0.3,5.3c0,0.2,0,0.5,0,0.7
			c0,1,0.5,1,0.9,1.1v0.2c-0.3,0-0.6-0.1-0.9-0.1c-0.2,0-0.5,0-0.7,0.1L248.6,637.7z"/>
		<path class="st0" d="M266.7,639.5c0,2.6-2.1,2.8-3.1,2.8c-2.9,0-3-2-3-2.8v-4.2c0-0.5,0-1.1-0.7-1.2V634c0.3,0,0.8,0.1,1.1,0.1
			c0.4,0,0.8,0,1.1-0.1v0.2c-0.5,0.1-0.7,0.3-0.7,1.2v4.2c0,0.5,0,2.2,2.4,2.2c1.9,0,2.4-1.2,2.4-2.2v-4.2c0-0.7-0.1-1.2-0.7-1.2
			V634c0.3,0,0.7,0.1,1,0.1s0.6,0,1-0.1v0.2c-0.6,0-0.7,0.5-0.7,1.2L266.7,639.5L266.7,639.5z"/>
		<path class="st0" d="M272.5,642.2c-0.2,0-0.5-0.1-0.8-0.1s-0.6,0-0.8,0.1c0-0.7,0.1-1.5,0.1-2.8v-3.2c0-1.7-0.1-1.8-0.7-2V634
			c0.3,0,0.5,0.1,0.8,0.1s0.6-0.1,0.9-0.1l4.6,6.4l0,0v-3.8c0-1.9,0-2.2-1-2.3V634c0.3,0,0.6,0.1,0.9,0.1c0.2,0,0.5-0.1,0.7-0.1
			c0,0.2-0.1,1.1-0.1,2.9v1.6c0,2,0.1,3.1,0.1,3.6h-0.3c-0.5-0.8-1-1.5-1.6-2.2l-1.7-2.5c-0.6-0.9-1.3-1.8-2-2.7l0,0v2.8
			c0,0.8,0,1.6,0,2.2c0,2.1,0.3,2,1,2.1v0.4H272.5z"/>
		<path class="st0" d="M280.8,642c0.4-0.1,0.7-0.1,0.7-1.2v-5.4c0-1.1-0.3-1.1-0.7-1.2V634c0.4,0,0.8,0.1,1.2,0.1
			c0.4,0,0.7,0,1.1-0.1v0.2c-0.4,0.1-0.7,0.1-0.7,1.2v5.4c0,1.1,0.3,1.1,0.7,1.2v0.2c-0.4,0-0.7-0.1-1.1-0.1s-0.8,0-1.2,0.1V642z"/>
		<path class="st0" d="M287.9,642c0.6-0.1,0.7-0.2,0.7-1.2v-6.3h-0.8c-1.4,0-1.5,0.5-1.8,1l-0.3-0.1c0.2-0.7,0.2-0.8,0.2-1.7h0.3
			c0,0.1,0.1,0.1,0.3,0.2c0.1,0,0.3,0,0.4,0h4.1c0.4,0,0.6,0,0.7-0.2h0.3c0,0.8,0.1,1,0.2,1.7l-0.3,0.1c-0.2-0.5-0.4-1-1.8-1h-0.8
			v6.3c0,1,0.2,1.1,0.7,1.2v0.2c-0.4,0-0.7-0.1-1.1-0.1s-0.7,0-1.1,0.1L287.9,642L287.9,642z"/>
		<path class="st0" d="M297.2,642c0.6-0.1,0.7-0.4,0.7-1.2v-2.4l-1.5-2.2c-1.2-1.7-1.3-1.8-1.9-2V634c0.5,0,0.9,0.1,1.4,0.1
			c0.4,0,0.8,0,1.2-0.1v0.2c-0.3,0-0.7,0-0.7,0.4c0,0.2,0.6,1,0.9,1.5l1.2,1.7l0.7-0.8c1-1.2,1.5-2,1.5-2.3c0-0.4-0.3-0.4-0.6-0.5
			V634c0.2,0,0.5,0.1,0.7,0.1c0.3,0,0.5,0,0.8-0.1c0,1-0.8,1.9-1.9,3.1c-0.4,0.4-0.8,0.9-1,1.3v2.4c0,0.8,0.1,1.1,0.7,1.2v0.2
			c-0.4,0-0.7-0.1-1.1-0.1s-0.8,0-1.1,0.1L297.2,642L297.2,642z"/>
	</g>
	<polygon class="st1" points="259,403.3 305.9,492.6 352.8,582 259,582 165.1,582 212,492.6 	"/>
	
		<linearGradient id="SVGID_9_" gradientUnits="userSpaceOnUse" x1="93.4" y1="-122.85" x2="281.1" y2="-122.85" gradientTransform="matrix(1 0 0 -1 0 392)">
		<stop  offset="0" style="stop-color:#FFFFFF"/>
		<stop  offset="2.049065e-02" style="stop-color:#F4F4F4"/>
		<stop  offset="0.1353" style="stop-color:#BCBCBC"/>
		<stop  offset="0.2536" style="stop-color:#8A8A8A"/>
		<stop  offset="0.3728" style="stop-color:#5F5F5F"/>
		<stop  offset="0.493" style="stop-color:#3D3D3D"/>
		<stop  offset="0.6147" style="stop-color:#222222"/>
		<stop  offset="0.7382" style="stop-color:#0F0F0F"/>
		<stop  offset="0.865" style="stop-color:#040404"/>
		<stop  offset="1" style="stop-color:#000000"/>
	</linearGradient>
	<polygon class="st10" points="187.3,443.8 234.2,514.8 281.1,585.9 187.3,585.9 93.4,585.9 140.3,514.8 	"/>
	
		<linearGradient id="SVGID_10_" gradientUnits="userSpaceOnUse" x1="230.6" y1="-126.7" x2="418.4" y2="-126.7" gradientTransform="matrix(1 0 0 -1 0 392)">
		<stop  offset="0" style="stop-color:#FFFFFF"/>
		<stop  offset="2.049065e-02" style="stop-color:#F4F4F4"/>
		<stop  offset="0.1353" style="stop-color:#BCBCBC"/>
		<stop  offset="0.2536" style="stop-color:#8A8A8A"/>
		<stop  offset="0.3728" style="stop-color:#5F5F5F"/>
		<stop  offset="0.493" style="stop-color:#3D3D3D"/>
		<stop  offset="0.6147" style="stop-color:#222222"/>
		<stop  offset="0.7382" style="stop-color:#0F0F0F"/>
		<stop  offset="0.865" style="stop-color:#040404"/>
		<stop  offset="1" style="stop-color:#000000"/>
	</linearGradient>
	<polygon class="st11" points="324.5,447.6 371.4,518.7 418.4,589.8 324.5,589.8 230.6,589.8 277.6,518.7 	"/>
</g>
<g id="Logos">
	<g>
		<path class="st12" d="M37.8,307.4l0.4-0.6c2.4,0.1,9.5-0.1,11.8-0.4l0.1,0.3v0.3l-1,1c-0.4,2.7-0.5,11-0.5,18.7
			c0,8.4,0.1,16,0.3,18.2c3.4,0.6,7.3,0.9,10.7,0.9c4.3,0,6.7-0.2,9.1-0.9l0.1,0.3l-0.2,0.7c-1,0.8-3.1,2-4.4,2.7
			c-2.2,0.6-5.9,0.7-10.2,0.7c-2.8,0-9.5-0.1-12.4-0.3v-0.5c0.3-0.4,0.6-1.1,0.7-1.5c0.3-1.9,0.5-7.2,0.5-20.2
			c0-11.8-0.2-16.1-1-17.4c-0.6-0.9-2-1.3-4-1.7V307.4z"/>
		<path class="st12" d="M80.9,340.3c-1.3,0.1-1.8,0.5-2.2,1.5l-3.2,7.2c-0.1,0.2-0.4,0.4-0.8,0.4l-4.1-0.3c-0.1-0.2-0.1-0.4-0.1-0.6
			c1.5-1.5,5-6.5,9.1-14.2c4-7.6,5.2-10.7,5.5-11.7c0.3-0.8,0.6-1.9,0.6-2.4c0.6-0.6,2-1.7,2.8-2l0.4,0.1c0.3,2,2.3,6.4,6.8,15.5
			c6.5,13.4,6.9,14,9.5,14.6c0.1,0.2,0.1,0.6-0.1,0.8c-0.6,0.1-1.9,0.1-3.3,0.1c-1.9,0-3.9-0.1-5.4-0.2l-0.1-0.4l0.2-0.4
			c-1.3-2.8-2.6-5.7-3.9-8.3c-0.3-0.5-0.4-0.6-1.1-0.5L80.9,340.3z M81.1,336.7c0,0.2,0.1,0.3,0.3,0.3c1,0.3,2.4,0.3,4.5,0.3
			c1.9,0,3.6-0.1,5.5-0.2l0.1-0.1l-5.3-11L81.1,336.7z"/>
		<path class="st12" d="M106.9,319.6l9.5-0.5l0.1,0.4l-0.4,0.9c-0.4,2.7-0.4,7.5-0.4,12.6c1.5-0.3,3.3-1.1,4.4-1.9
			c1.9-2.3,5.7-7.8,7.7-10.8l0.1-1.1c2.9,0,7.1,0.4,8,0.6v1c-2.3,0.2-3.1,0.4-5.7,2.6c-1.5,1.1-6.3,6.3-7.9,8.2v0.3
			c13.8,16,14.8,16.7,16.7,17.6c0,0.3-0.1,0.7-0.3,0.9c-1.5-0.1-6.1-0.8-7.7-1.4c-3-2.4-9.2-9.2-13.5-14.1h-1.9
			c-0.1,3.3,0,8.9,0.3,13.5l-0.3,0.3l-1.6,0.2l-3.8,1.1l-0.5-0.3c0.4-1.7,0.6-7.5,0.6-15.6c0-8.8-0.2-11.4-1.1-12.3
			c-0.3-0.4-1.2-0.8-2.5-1.1l-0.1-0.4L106.9,319.6z"/>
		<path class="st12" d="M142.2,319.1c3.3,0.3,7,0.4,9.1,0.4h5.6c2.6,0,4.7-0.3,5.7-0.6l0.3,0.2v5.7l-0.1,0.1l-0.6,0.4H162l-2.6-3.3
			c-0.3-0.3-0.5-0.4-1-0.4l-9.6,0.6v9.8l0.2,0.3c1.3,0.1,3.8,0.1,5.6,0.1c3,0,4.8-0.1,6.9-0.3c0.1,0.1,0.1,0.3,0.1,0.3
			c0,0.1-0.1,0.3-0.1,0.4c-0.7,0.5-1.7,1.3-2.6,1.7c-3.4,0.4-7.9,0.8-10.1,0.8v10c2.3,0.5,5.7,0.7,9.5,0.7c3,0,4.4-0.1,6.6-0.6
			l0.1,0.1l-0.1,0.6c-1,0.8-2.2,1.7-3.3,2.2c-2,0.6-4.7,0.8-8.2,0.8c-2.1,0-4.5-0.1-8-0.2l-1.9,0.6l-0.4-0.3c0.3-3,0.5-7.8,0.5-15.8
			c0-7.9-0.3-10.2-0.9-10.9c-0.5-0.5-1.7-0.8-3.6-1l0.1-0.5L142.2,319.1z"/>
		<path class="st12" d="M220.1,313.9c-0.7-2.5-5.1-5.6-11.6-5.6c-6.8,0-10.1,2-12.1,3.7c-2.2,1.9-5.1,6.2-5.1,13.5
			c0,10.3,5.4,20.5,18.8,20.5c7.1,0,10.5-2.2,13.7-4.8h0.4l-0.4,1.8l-4.5,4.5c-2.4,1.4-6.5,2.7-12.7,2.7
			c-13.9,0-21.9-10.2-21.9-21.8c0-8.8,3.7-14.2,9.4-18.3c3.4-2.3,8.2-4.5,16.4-4.5c7.7,0,11.9,2.2,12.6,3l0.1,0.4l-2,3.4l-0.4,1.3
			L220.1,313.9z"/>
		<path class="st12" d="M236,340.3c-1.3,0.1-1.8,0.5-2.2,1.5l-3.2,7.2c-0.1,0.2-0.4,0.4-0.8,0.4l-4.1-0.3c-0.1-0.2-0.1-0.4-0.1-0.6
			c1.5-1.5,5-6.5,9.1-14.2c4-7.6,5.2-10.7,5.5-11.7c0.3-0.8,0.6-1.9,0.6-2.4c0.6-0.6,2-1.7,2.8-2l0.4,0.1c0.3,2,2.3,6.4,6.8,15.5
			c6.5,13.4,6.9,14,9.5,14.6c0.1,0.2,0.1,0.6-0.1,0.8c-0.6,0.1-1.9,0.1-3.3,0.1c-1.9,0-3.9-0.1-5.4-0.2l-0.1-0.4l0.2-0.4
			c-1.3-2.8-2.6-5.7-3.9-8.3c-0.3-0.5-0.4-0.6-1.1-0.5L236,340.3z M236.2,336.7c0,0.2,0.1,0.3,0.3,0.3c1,0.3,2.4,0.3,4.5,0.3
			c1.9,0,3.6-0.1,5.5-0.2l0.1-0.1l-5.3-11.1L236.2,336.7z"/>
		<path class="st12" d="M273.2,349.8c-0.5-2-1.9-5.5-6.7-16.2c-4.9-10.9-5.4-11.9-6.5-12.5c-0.6-0.3-1.7-0.5-2.6-0.6l-0.1-0.5
			l0.4-0.4c2-0.1,7.3-0.4,9.5-0.4v0.6l-0.5,0.6l9.1,21.5h0.1l5.6-12.1c2-4.3,3.6-8.2,4.1-10.5c0.1-0.1,0.3-0.3,0.5-0.3l4.5,0.3
			c0.1,0.1,0.1,0.4,0.1,0.6c-1.4,1.3-4.3,5.7-7.8,12.7c-4.9,9.9-6.3,13-6.6,15.6c-0.7,0.4-2.2,1.4-2.6,1.9L273.2,349.8z"/>
		<path class="st12" d="M298.2,340.3c-1.3,0.1-1.8,0.5-2.2,1.5l-3.2,7.2c-0.1,0.2-0.4,0.4-0.8,0.4l-4.1-0.3
			c-0.1-0.2-0.1-0.4-0.1-0.6c1.5-1.5,5-6.5,9.1-14.2c4-7.6,5.2-10.7,5.5-11.7c0.3-0.8,0.6-1.9,0.6-2.4c0.6-0.6,2-1.7,2.8-2l0.4,0.1
			c0.3,2,2.3,6.4,6.8,15.5c6.5,13.4,6.9,14,9.5,14.6c0.1,0.2,0.1,0.6-0.1,0.8c-0.6,0.1-1.9,0.1-3.3,0.1c-1.9,0-3.9-0.1-5.4-0.2
			l-0.1-0.4l0.2-0.4c-1.3-2.8-2.6-5.7-3.9-8.3c-0.3-0.5-0.4-0.6-1.2-0.5L298.2,340.3z M298.4,336.7c0,0.2,0.1,0.3,0.3,0.3
			c1,0.3,2.4,0.3,4.5,0.3c1.9,0,3.6-0.1,5.5-0.2l0.1-0.1l-5.3-11.1L298.4,336.7z"/>
		<path class="st12" d="M323.7,319.4l5.2-0.3l1.6-0.4h0.6c0.8,0.9,6.8,7.5,10.2,11.2c5.7,6.3,9.5,10,11,11.5c0-2.4,0.1-8.4,0.1-11.3
			c0-5-0.4-8.1-0.6-9.8l0.2-0.4c1.1-0.3,3.4-0.8,4.7-1.1c0.1,0.1,0.2,0.3,0.2,0.4l-0.8,1.2c-0.6,2.1-1.1,12.1-1.1,16
			c0,5.9,0.1,10.6,0.3,13.5l-0.4,0.4l-2-0.5c-4-3.7-19-19.6-22.4-23.6h-0.2c-0.1,5.6,0,16.8,0.5,22.6l-0.2,0.3l-1.7,0.1l-2.4,0.7
			l-0.3-0.4c0.7-2.7,1.2-11.1,1.5-18c0.2-5.9,0.1-8.3-0.6-9.3s-1.5-1.2-3.6-1.5l-0.1-0.3L323.7,319.4z"/>
		<path class="st12" d="M370,340.3c-1.3,0.1-1.8,0.5-2.2,1.5l-3.2,7.2c-0.1,0.2-0.4,0.4-0.8,0.4l-4.1-0.3c-0.1-0.2-0.1-0.4-0.1-0.6
			c1.5-1.5,5-6.5,9.1-14.2c4-7.6,5.2-10.7,5.5-11.7c0.3-0.8,0.6-1.9,0.6-2.4c0.6-0.6,2-1.7,2.8-2l0.4,0.1c0.3,2,2.3,6.4,6.8,15.5
			c6.5,13.4,6.9,14,9.5,14.6c0.1,0.2,0.1,0.6-0.1,0.8c-0.6,0.1-1.9,0.1-3.3,0.1c-1.9,0-3.9-0.1-5.4-0.2l-0.1-0.4l0.2-0.4
			c-1.3-2.8-2.6-5.7-3.9-8.3c-0.3-0.5-0.4-0.6-1.2-0.5L370,340.3z M370.2,336.7c0,0.2,0.1,0.3,0.3,0.3c1,0.3,2.4,0.3,4.5,0.3
			c1.9,0,3.6-0.1,5.5-0.2l0.1-0.1l-5.3-11.1L370.2,336.7z"/>
		<path class="st12" d="M396.3,319.4l9.5-0.3l0.1,0.6l-0.6,0.7c-0.3,1.1-0.4,5.2-0.4,9.1c0,10.3,0.6,12.6,3.1,14.9
			c1.7,1.6,3.9,2.2,7,2.2c3.5,0,5.9-1,7.2-3.1c1.2-1.9,1.7-3.7,1.7-9.8c0-6.9-0.4-11-0.8-13.3l0.2-0.4c0.9-0.1,3.1-0.7,4.1-1
			l0.3,0.3c-0.6,2.9-0.8,10.7-0.8,14.1c0,4.3-0.1,8.2-2.2,11.3c-2,3.1-5.6,5-10.9,5c-5.4,0-8.9-1-11.4-3.6c-1.9-2-2.9-4.9-2.9-11.1
			c0-11.8-0.3-13-0.9-13.7c-0.3-0.3-1.3-0.7-2.3-0.8v-0.6L396.3,319.4z"/>
		<path class="st12" d="M461.4,325.6c-1.3-2.7-4.6-4.5-9.6-4.5c-4.9,0-7,1.4-8.3,2.5c-2.2,2-3.5,4.5-3.5,8.7c0,9,6,14.9,13.4,14.9
			c2.4,0,5.1-0.5,5.9-0.9c0.1-1.5,0.1-6.5-0.1-8.8l-2.3-0.4l-0.1-0.5l0.4-0.6c1.8-0.3,6.2-0.9,7.8-0.9l0.1,0.6l-0.6,0.8
			c-0.3,2.6-0.4,6.8-0.3,8.8l0.8,0.3c0.1,0.3,0.1,0.6-0.1,0.8c-3.4,1.5-8,3.6-15,3.6c-9.7,0-15.6-6.7-15.6-15.6
			c0-5.3,2.5-9.5,7-12.5c2.9-2,7.2-3.1,12-3.1c5.7,0,9.5,1.5,10.5,2.1v0.6l-1.3,2.6l-0.3,1.5H461.4z"/>
		<path class="st12" d="M480.1,319.1l0.3,0.4l-0.5,0.9c-0.5,2.2-0.5,9.3-0.5,10.9c0.1,0.3,0.4,0.6,0.8,0.7c1,0.3,5.4,0.4,9.1,0.4
			c2.3,0,7.5-0.3,8.2-0.5l0.3-0.3c0.1-1.2,0-9.2-0.4-10.9l0.2-0.3c1.1-0.4,4.6-1.3,5.9-1.5l0.3,0.4c-0.4,1.3-0.6,6.5-0.6,13.7
			c0,2.7,0,7.4,0.3,10l1.2,0.7v0.1c-0.4,0.5-0.6,0.9-0.9,1.9c-0.2,0.7-0.3,1.5-0.6,2l-4.9,2l-0.7-0.4c0.1-2.2,0.2-5.4,0.2-8.4v-6
			c-0.1-0.4-0.3-0.6-0.8-0.6l-17.2,1l-0.4,0.5c0,2.2,0,7.8,0.3,12.3l-0.2,0.3l-1.6,0.1l-4,1.2l-0.4-0.3c0.1-1.8,0.4-7.4,0.4-15.7
			c0-8.8-0.2-11.5-1-12.3c-0.4-0.4-1.3-0.8-2.6-1v-0.3l0.3-0.5L480.1,319.1z"/>
		<path class="st12" d="M216.1,376.1c-0.4,0.7-1.6,2.6-4.3,2.6c-3.2,0-5.8-2.4-5.8-6.6c0-3.8,2.7-6.6,5.8-6.6c1.4,0,2.3,0.4,2.7,0.4
			c0.3,0,0.4-0.1,0.5-0.4h0.4c0.1,1.1,0.4,2.1,0.5,2.8l-0.5,0.1c-0.3-0.9-1.2-2.1-3.3-2.2c-2.6,0-4.6,1.9-4.6,5.6
			c0,3.9,2.1,5.8,4.6,5.8c2.1,0,3-1.3,3.7-2.1L216.1,376.1z"/>
		<path class="st12" d="M220.5,372.2c0-3.5,2.7-6.5,6.2-6.5s6.3,2.7,6.3,6.5c0,3.7-2.7,6.6-6.3,6.6
			C223.7,378.8,220.5,376.5,220.5,372.2z M226.8,377.9c2.6,0,4.8-2.1,4.8-5.8c0-3.5-2.2-5.7-4.8-5.7s-4.8,2.3-4.8,5.7
			C222,376.1,224.4,377.9,226.8,377.9z"/>
		<path class="st12" d="M238.7,371.7c0.1-2.5,0.1-1.9,0.1-3.6c0-1.8-0.7-1.6-1-1.8V366c0.5,0,1,0.1,1.5,0.1c0.4,0,0.8-0.1,1.2-0.1
			l4,10.2l3.9-10.2c0.5,0,1,0.1,1.5,0.1c0.4,0,0.8-0.1,1.3-0.1v0.3c-0.6,0.1-1.1,0.3-1.1,1.4c0,0.2,0,0.5,0,0.7l0.5,6.4
			c0.2,2.9,0.1,3.1,1.3,3.5v0.3c-0.6,0-1.2-0.1-1.7-0.1c-0.7,0-1.4,0.1-2,0.1v-0.3c0.9-0.2,1.4-0.2,1.4-1.5c0-0.3,0-0.7,0-1L249,367
			l0,0l-1.9,4.9c-0.9,2.2-1.9,5.1-2.5,6.7h-0.3c-0.9-2.4-1.9-4.8-2.9-7.1l-1.7-4.1l0,0l-0.4,8.1c0,0.3,0,0.7,0,1.1
			c0,1.6,0.8,1.6,1.4,1.7v0.3c-0.5,0-1-0.1-1.4-0.1s-0.7,0.1-1.1,0.1L238.7,371.7z"/>
		<path class="st12" d="M257.4,371.7c0.1-2.5,0.1-1.9,0.1-3.6c0-1.8-0.7-1.6-1-1.8V366c0.5,0,1,0.1,1.5,0.1c0.4,0,0.8-0.1,1.2-0.1
			l4,10.2l3.9-10.2c0.5,0,1,0.1,1.5,0.1c0.4,0,0.8-0.1,1.3-0.1v0.3c-0.6,0.1-1.1,0.3-1.1,1.4c0,0.2,0,0.5,0,0.7l0.5,6.4
			c0.2,2.9,0.1,3.1,1.3,3.5v0.3c-0.6,0-1.2-0.1-1.7-0.1c-0.7,0-1.4,0.1-2,0.1v-0.3c0.9-0.2,1.4-0.2,1.4-1.5c0-0.3,0-0.7,0-1
			l-0.6-8.8l0,0l-1.9,4.9c-0.9,2.2-1.9,5.1-2.5,6.7H263c-0.9-2.4-1.9-4.8-2.9-7.1l-1.7-4.1l0,0l-0.4,8.1c0,0.3,0,0.7,0,1.1
			c0,1.6,0.8,1.6,1.4,1.7v0.3c-0.5,0-1-0.1-1.4-0.1s-0.7,0.1-1.1,0.1L257.4,371.7z"/>
		<path class="st12" d="M285.3,374.4c0,4.1-3.2,4.3-4.7,4.3c-4.4,0-4.7-3.1-4.7-4.3V368c0-0.8,0-1.7-1.1-1.8v-0.3
			c0.5,0,1.2,0.1,1.7,0.1c0.6,0,1.2-0.1,1.7-0.1v0.3c-0.8,0.1-1.1,0.5-1.1,1.8v6.5c0,0.8,0,3.4,3.6,3.4c2.9,0,3.7-1.8,3.7-3.4V368
			c0-1.1-0.2-1.8-1.1-1.8v-0.3c0.5,0,1,0.1,1.6,0.1c0.5,0,1-0.1,1.5-0.1v0.3c-1,0-1.1,0.7-1.1,1.8V374.4z"/>
		<path class="st12" d="M294.1,378.5c-0.4,0-0.8-0.1-1.2-0.1c-0.4,0-0.9,0.1-1.3,0.1c0-1.1,0.2-2.4,0.2-4.4v-4.9
			c0-2.6-0.1-2.7-1.1-3.1v-0.3c0.4,0,0.8,0.1,1.3,0.1c0.4,0,0.9-0.1,1.4-0.1l7,9.8l0,0v-5.9c0-3,0-3.4-1.5-3.6v-0.3
			c0.5,0,0.9,0.1,1.4,0.1c0.4,0,0.7-0.1,1.1-0.1c0,0.4-0.1,1.6-0.1,4.5v2.5c0,3.2,0.1,4.8,0.1,5.6h-0.5c-0.8-1.2-1.6-2.3-2.4-3.4
			l-2.7-3.8c-1-1.4-2-2.8-3-4.1l0,0v4.3c0,1.2,0,2.4,0,3.4c0,3.2,0.4,3.1,1.5,3.3v0.4H294.1z"/>
		<path class="st12" d="M306.9,378.2c0.6-0.1,1.1-0.2,1.1-1.8V368c0-1.6-0.5-1.7-1.1-1.8v-0.3c0.6,0,1.2,0.1,1.8,0.1
			c0.6,0,1.1-0.1,1.7-0.1v0.3c-0.6,0.1-1.1,0.2-1.1,1.8v8.3c0,1.6,0.5,1.7,1.1,1.8v0.3c-0.6,0-1.1-0.1-1.7-0.1s-1.2,0.1-1.8,0.1
			V378.2z"/>
		<path class="st12" d="M317.9,378.2c0.9-0.2,1.1-0.3,1.1-1.8v-9.6h-1.2c-2.1,0-2.4,0.7-2.7,1.6l-0.5-0.1c0.2-1,0.3-1.3,0.3-2.6h0.4
			c0,0.1,0.2,0.2,0.4,0.3c0.2,0,0.5,0,0.7,0h6.3c0.7,0,0.9,0,1.1-0.3h0.4c0,1.3,0.1,1.5,0.3,2.6l-0.5,0.1c-0.3-0.8-0.6-1.6-2.7-1.6
			h-1.2v9.6c0,1.5,0.3,1.6,1.1,1.8v0.3c-0.6,0-1.1-0.1-1.7-0.1s-1.1,0.1-1.7,0.1v-0.3H317.9z"/>
		<path class="st12" d="M332.1,378.2c0.9-0.1,1.1-0.6,1.1-1.8v-3.8l-2.4-3.4c-1.8-2.6-1.9-2.7-3-3v-0.3c0.7,0,1.4,0.1,2.1,0.1
			c0.6,0,1.3-0.1,1.9-0.1v0.3c-0.5,0-1,0.1-1,0.6c0,0.3,0.9,1.6,1.4,2.4l1.9,2.6l1.1-1.3c1.5-1.8,2.2-3,2.2-3.6s-0.5-0.6-0.9-0.7
			v-0.3c0.4,0,0.7,0.1,1.1,0.1s0.8-0.1,1.3-0.1c0,1.5-1.2,2.9-2.9,4.8c-0.5,0.6-1.2,1.4-1.6,2v3.7c0,1.2,0.1,1.7,1.1,1.8v0.3
			c-0.6,0-1.1-0.1-1.7-0.1s-1.2,0.1-1.8,0.1L332.1,378.2L332.1,378.2z"/>
	</g>
	<polygon class="st13" points="273.3,11 345.6,148.4 417.8,285.9 273.3,285.9 128.9,285.9 201.1,148.4 	"/>
	
		<linearGradient id="SVGID_11_" gradientUnits="userSpaceOnUse" x1="18.6" y1="209.45" x2="307.5" y2="209.45" gradientTransform="matrix(1 0 0 -1 0 392)">
		<stop  offset="0" style="stop-color:#FFFFFF"/>
		<stop  offset="2.049065e-02" style="stop-color:#F4F4F4"/>
		<stop  offset="0.1353" style="stop-color:#BCBCBC"/>
		<stop  offset="0.2536" style="stop-color:#8A8A8A"/>
		<stop  offset="0.3728" style="stop-color:#5F5F5F"/>
		<stop  offset="0.493" style="stop-color:#3D3D3D"/>
		<stop  offset="0.6147" style="stop-color:#222222"/>
		<stop  offset="0.7382" style="stop-color:#0F0F0F"/>
		<stop  offset="0.865" style="stop-color:#040404"/>
		<stop  offset="1" style="stop-color:#000000"/>
	</linearGradient>
	<polygon class="st14" points="163,73.2 235.3,182.6 307.5,291.9 163,291.9 18.6,291.9 90.8,182.6 	"/>
	
		<linearGradient id="SVGID_12_" gradientUnits="userSpaceOnUse" x1="229.7" y1="203.45" x2="518.6" y2="203.45" gradientTransform="matrix(1 0 0 -1 0 392)">
		<stop  offset="0" style="stop-color:#FFFFFF"/>
		<stop  offset="2.049065e-02" style="stop-color:#F4F4F4"/>
		<stop  offset="0.1353" style="stop-color:#BCBCBC"/>
		<stop  offset="0.2536" style="stop-color:#8A8A8A"/>
		<stop  offset="0.3728" style="stop-color:#5F5F5F"/>
		<stop  offset="0.493" style="stop-color:#3D3D3D"/>
		<stop  offset="0.6147" style="stop-color:#222222"/>
		<stop  offset="0.7382" style="stop-color:#0F0F0F"/>
		<stop  offset="0.865" style="stop-color:#040404"/>
		<stop  offset="1" style="stop-color:#000000"/>
	</linearGradient>
	<polygon class="st15" points="374.2,79.2 446.4,188.6 518.6,297.9 374.2,297.9 229.7,297.9 302,188.6 	"/>
</g>
</svg>
